<?xml version="1.0" standalone="no"?>
<!DOCTYPE svg PUBLIC "-//W3C//DTD SVG 1.1//EN" "http://www.w3.org/Graphics/SVG/1.1/DTD/svg11.dtd" >
<svg>
<metadata>
Created by FontForge 20090914 at Wed Oct 19 00:50:50 2011
 By www-data
(c) by Abolfazl Seilsepour - +98 912 591 3420  -  seilsepor@yahoo.com
</metadata>
<defs>
<font id="FarArshia" horiz-adv-x="0" >
  <font-face 
    font-family="Far.Arshia"
    font-weight="400"
    font-stretch="normal"
    units-per-em="2048"
    panose-1="0 0 4 0 0 0 0 0 0 0"
    ascent="1638"
    descent="-410"
    bbox="-255 -544 1752 1756"
    underline-thickness="20"
    underline-position="-123"
    unicode-range="U+0020-U+FEFC"
  />
<missing-glyph horiz-adv-x="1024" 
d="M128 0v1579h768v-1579h-768zM256 128h512v1323h-512v-1323z" />
    <glyph glyph-name="uE818" unicode="&#x651;&#x64b;" 
d="M307 1701h-230v55h230v-55zM307 1612h-230v55h230v-55zM336 1515c0 -78 -29.667 -117 -89 -117c-22.667 0 -42.667 11.667 -60 35c-18 -23.333 -37.667 -35 -59 -35c-58.667 0 -88 37.667 -88 113v63h53v-63c0 -34 11.333 -51 34 -51s34 17 34 51v41h53v-41
c0 -34 11.333 -51 34 -51c23.333 0 35 17.667 35 53v61h53v-59z" />
    <glyph glyph-name="uFC5E" unicode="&#x651;&#x64c;" arabic-form="isolated" 
d="M364 1497c0 -78 -29.667 -117 -89 -117c-22.667 0 -42.667 11.667 -60 35c-18 -23.333 -37.667 -35 -59 -35c-58.667 0 -88 37.667 -88 113v63h53v-63c0 -34 11.333 -51 34 -51s34 17 34 51v41h53v-41c0 -34 11.333 -51 34 -51c23.333 0 35 17.667 35 53v61h53v-59z
M327 1575h-212v52h10v58h20v-58h53c0 56 43 84 129 84v-136zM289 1628v37c-36.667 0 -55 -12.333 -55 -37h55z" />
    <glyph glyph-name="uFC5F" unicode="&#x651;&#x64d;" arabic-form="isolated" 
d="M325 1687c0 -78 -29.667 -117 -89 -117c-22.667 0 -42.667 11.667 -60 35c-18 -23.333 -37.667 -35 -59 -35c-58.667 0 -88 37.667 -88 113v63h53v-63c0 -34 11.333 -51 34 -51s34 17 34 51v41h53v-41c0 -34 11.333 -51 34 -51c23.333 0 35 17.667 35 53v61h53v-59z
M296 1483h-230v55h230v-55zM296 1394h-230v55h230v-55z" />
    <glyph glyph-name="uFC60" unicode="&#x651;&#x64e;" arabic-form="isolated" 
d="M342 1503c0 -78 -29.667 -117 -89 -117c-22.667 0 -42.667 11.667 -60 35c-18 -23.333 -37.667 -35 -59 -35c-58.667 0 -88 37.667 -88 113v63h53v-63c0 -34 11.333 -51 34 -51s34 17 34 51v41h53v-41c0 -34 11.333 -51 34 -51c23.333 0 35 17.667 35 53v61h53v-59z
M288 1591h-190v55h190v-55z" />
    <glyph glyph-name="uFC61" unicode="&#x651;&#x64f;" arabic-form="isolated" 
d="M293 1613h-212v52h83c0 56 43 84 129 84v-136zM325 1508c0 -78 -29.667 -117 -89 -117c-22.667 0 -42.667 11.667 -60 35c-18 -23.333 -37.667 -35 -59 -35c-58.667 0 -88 37.667 -88 113v63h53v-63c0 -34 11.333 -51 34 -51s34 17 34 51v41h53v-41
c0 -34 11.333 -51 34 -51c23.333 0 35 17.667 35 53v61h53v-59zM255 1666v37c-36.667 0 -55 -12.333 -55 -37h55z" />
    <glyph glyph-name="uFC62" unicode="&#x651;&#x650;" arabic-form="isolated" 
d="M325 1607c0 -78 -29.667 -117 -89 -117c-22.667 0 -42.667 11.667 -60 35c-18 -23.333 -37.667 -35 -59 -35c-58.667 0 -88 37.667 -88 113v63h53v-63c0 -34 11.333 -51 34 -51s34 17 34 51v41h53v-41c0 -34 11.333 -51 34 -51c23.333 0 35 17.667 35 53v61h53v-59z
M296 1403h-230v55h230v-55z" />
    <glyph glyph-name="uFDF2" unicode="&#xfedf;&#xfee0;&#xfeea;" horiz-adv-x="1456" arabic-form="isolated" 
d="M1167 1166h-57v189h57v-189zM1289 1074c0 -78 -29.667 -117 -89 -117c-22.667 0 -42.667 11.667 -60 35c-18 -23.333 -37.667 -35 -59 -35c-58.667 0 -88 37.667 -88 113v63h53v-63c0 -34 11.333 -51 34 -51s34 17 34 51v41h53v-41c0 -34 11.333 -51 34 -51
c23.333 0 35 17.667 35 53v61h53v-59zM1456 195c0 -53.333 -19.5 -99.168 -58.5 -137.501s-85.5 -57.5 -139.5 -57.5c-53.333 0 -95.333 14.333 -126 43c-34.667 -28.667 -74.334 -43 -119.001 -43c-132.667 0 -199 76 -199 228v207c0 76 -28.167 143.667 -84.5 203
s-122.166 89 -197.499 89c-81.333 0 -149.833 -28.667 -205.5 -86s-83.5 -126.666 -83.5 -207.999c0 -82 27.667 -150.167 83 -204.5s124 -81.5 206 -81.5h143v-147h-141c-122 0 -225.667 42.667 -311 128s-128 189 -128 311c0 122.667 42.5 227 127.5 313
s188.833 129 311.5 129c102.667 0 196 -34.333 280 -103v104h150v-678c0 -38 16.333 -57 49 -57c31.333 0 47 17.333 47 52v687h151v-691c0 -32 15.667 -48 47 -48s47 16 47 48v691h151v-691z" />
    <glyph glyph-name="uFEF5" unicode="&#xfedf;&#xfe82;" horiz-adv-x="492" arabic-form="isolated" 
d="M246 69h-151v1077h151v-1077zM492 0c0 -54 -19.832 -100.167 -59.499 -138.5s-86.834 -57.5 -141.501 -57.5s-101 19 -139 57s-57 84.333 -57 139h152c0 -29.333 16 -44 48 -44c30.667 0 46 14.667 46 44v1146h151v-1146zM362.001 1290c0 -26 -9.66699 -48.333 -29 -67
s-42 -28 -68 -28c-25.333 0 -52.833 15 -82.5 45s-47.167 45 -52.5 45c-32 0 -48 -15.667 -48 -47v-43h-51v43c0 26.667 9.83301 49.5 29.5 68.5s42.834 28.5 69.501 28.5c19.333 0 43.666 -15 72.999 -45s50 -45 62 -45c32 0 48 15 48 45v43h49v-43z" />
    <glyph glyph-name="uFEF6" unicode="&#xfee0;&#xfe82;" horiz-adv-x="539" arabic-form="final" 
d="M550 0h-10.998c-14.667 0 -30.334 2 -47.001 6v-6c0 -54 -19.833 -100.167 -59.5 -138.5s-86.834 -57.5 -141.501 -57.5s-101 19 -139 57s-57 84.333 -57 139h152c0 -29.333 16 -44 48 -44c30.667 0 46 14.667 46 44v1146h151v-955c0 -29.333 14.667 -44 44 -44h14v-147z
M246.002 69h-151v1077h151v-1077zM362.002 1290c0 -26 -9.66699 -48.333 -29 -67s-42 -28 -68 -28c-25.333 0 -52.833 15 -82.5 45s-47.167 45 -52.5 45c-32 0 -48 -15.667 -48 -47v-43h-51v43c0 26.667 9.83301 49.5 29.5 68.5s42.834 28.5 69.501 28.5
c19.333 0 43.666 -15 72.999 -45s50 -45 62 -45c32 0 48 15 48 45v43h49v-43z" />
    <glyph glyph-name="uFEF7" unicode="&#xfedf;&#xfe84;" horiz-adv-x="492" arabic-form="isolated" 
d="M246 69h-151v1077h151v-1077zM492 0c0 -54 -19.832 -100.167 -59.499 -138.5s-86.834 -57.5 -141.501 -57.5s-101 19 -139 57s-57 84.333 -57 139h152c0 -29.333 16 -44 48 -44c30.667 0 46 14.667 46 44v1146h151v-1146zM266.001 1193l-181.999 0.000976562v59h78
c-18.667 10 -28 33 -28 69c0 37.333 12.667 68.166 38 92.499s56.666 36.5 93.999 36.5v-49c-50.667 0 -76 -25.333 -76 -76c0 -48.667 25.333 -73 76 -73v-59z" />
    <glyph glyph-name="uFEF8" unicode="&#xfee0;&#xfe84;" horiz-adv-x="539" arabic-form="final" 
d="M550 0h-10.998c-14.667 0 -30.334 2 -47.001 6v-6c0 -54 -19.833 -100.167 -59.5 -138.5s-86.834 -57.5 -141.501 -57.5s-101 19 -139 57s-57 84.333 -57 139h152c0 -29.333 16 -44 48 -44c30.667 0 46 14.667 46 44v1146h151v-955c0 -29.333 14.667 -44 44 -44h14v-147z
M246.002 69h-151v1077h151v-1077zM266.002 1193l-181.999 0.000976562v59h78c-18.667 10 -28 33 -28 69c0 37.333 12.667 68.166 38 92.499s56.666 36.5 93.999 36.5v-49c-50.667 0 -76 -25.333 -76 -76c0 -48.667 25.333 -73 76 -73v-59z" />
    <glyph glyph-name="uFEF9" unicode="&#xfedf;&#xfe88;" horiz-adv-x="492" arabic-form="isolated" 
d="M246 69h-151v1077h151v-1077zM492 0c0 -54 -19.832 -100.167 -59.499 -138.5s-86.834 -57.5 -141.501 -57.5s-101 19 -139 57s-57 84.333 -57 139h152c0 -29.333 16 -44 48 -44c30.667 0 46 14.667 46 44v1146h151v-1146zM266.001 -500l-181.999 0.000976562v59h78
c-18.667 10 -28 33 -28 69c0 37.333 12.667 68.166 38 92.499s56.666 36.5 93.999 36.5v-49c-50.667 0 -76 -25.333 -76 -76c0 -48.667 25.333 -73 76 -73v-59z" />
    <glyph glyph-name="uFEFA" unicode="&#xfee0;&#xfe88;" horiz-adv-x="539" arabic-form="final" 
d="M550 0h-10.998c-14.667 0 -30.334 2 -47.001 6v-6c0 -54 -19.833 -100.167 -59.5 -138.5s-86.834 -57.5 -141.501 -57.5s-101 19 -139 57s-57 84.333 -57 139h152c0 -29.333 16 -44 48 -44c30.667 0 46 14.667 46 44v1146h151v-955c0 -29.333 14.667 -44 44 -44h14v-147z
M246.002 69h-151v1077h151v-1077zM266.002 -500l-181.999 0.000976562v59h78c-18.667 10 -28 33 -28 69c0 37.333 12.667 68.166 38 92.499s56.666 36.5 93.999 36.5v-49c-50.667 0 -76 -25.333 -76 -76c0 -48.667 25.333 -73 76 -73v-59z" />
    <glyph glyph-name="uFEFB" unicode="&#xfedf;&#xfe8e;" horiz-adv-x="492" arabic-form="isolated" 
d="M246 69h-151v1077h151v-1077zM492 0c0 -54 -19.832 -100.167 -59.499 -138.5s-86.834 -57.5 -141.501 -57.5s-101 19 -139 57s-57 84.333 -57 139h152c0 -29.333 16 -44 48 -44c30.667 0 46 14.667 46 44v1146h151v-1146z" />
    <glyph glyph-name="uFEFC" unicode="&#xfee0;&#xfe8e;" horiz-adv-x="539" arabic-form="final" 
d="M550 0h-10.998c-14.667 0 -30.334 2 -47.001 6v-6c0 -54 -19.833 -100.167 -59.5 -138.5s-86.834 -57.5 -141.501 -57.5s-101 19 -139 57s-57 84.333 -57 139h152c0 -29.333 16 -44 48 -44c30.667 0 46 14.667 46 44v1146h151v-955c0 -29.333 14.667 -44 44 -44h14v-147z
M246.002 69h-151v1077h151v-1077z" />
    <glyph glyph-name="u0652_u064E.liga" unicode="&#x652;&#x64e;" horiz-adv-x="1" 
d="M130 1238v-190h-55v190h55z" />
    <glyph glyph-name="u0652_u064B.liga" unicode="&#x652;&#x64b;" horiz-adv-x="1" 
d="M495 1127c0 -19.333 -7 -36 -21 -50s-30.667 -21 -50 -21s-35.833 7 -49.5 21s-20.5 30.667 -20.5 50c0 18.667 7 35 21 49s30.333 21 49 21c19.333 0 36 -6.83301 50 -20.5s21 -30.167 21 -49.5zM323 1127c0 -19.333 -7 -36 -21 -50s-30.667 -21 -50 -21
s-35.833 7 -49.5 21s-20.5 30.667 -20.5 50c0 18.667 7 35 21 49s30.333 21 49 21c19.333 0 36 -6.83301 50 -20.5s21 -30.167 21 -49.5z" />
    <glyph glyph-name="u0652_u064D.liga" unicode="&#x652;&#x64d;" horiz-adv-x="1" 
d="M662 -325c0 -19.333 -7 -36 -21 -50s-30.667 -21 -50 -21s-35.833 7 -49.5 21s-20.5 30.667 -20.5 50c0 18.667 7 35 21 49s30.333 21 49 21c19.333 0 36 -6.83301 50 -20.5s21 -30.167 21 -49.5zM490 -325c0 -19.333 -7 -36 -21 -50s-30.667 -21 -50 -21
s-35.833 7 -49.5 21s-20.5 30.667 -20.5 50c0 18.667 7 35 21 49s30.333 21 49 21c19.333 0 36 -6.83301 50 -20.5s21 -30.167 21 -49.5z" />
    <glyph glyph-name="u0622" unicode="&#x622;" horiz-adv-x="350" arabic-form="isolated" 
d="M275 0h-150v1146h150v-1146zM362 1290c0 -26 -9.66699 -48.333 -29 -67s-42 -28 -68 -28c-25.333 0 -52.833 15 -82.5 45s-47.167 45 -52.5 45c-32 0 -48 -15.667 -48 -47v-43h-51v43c0 26.667 9.83301 49.5 29.5 68.5s42.834 28.5 69.501 28.5
c19.333 0 43.666 -15 72.999 -45s50 -45 62 -45c32 0 48 15 48 45v43h49v-43z" />
    <glyph glyph-name="u0623" unicode="&#x623;" horiz-adv-x="246" arabic-form="isolated" 
d="M245 0h-150v1146h150v-1146zM266 1193l-181.999 0.000976562v59h78c-18.667 10 -28 33 -28 69c0 37.333 12.667 68.166 38 92.499s56.666 36.5 93.999 36.5v-49c-50.667 0 -76 -25.333 -76 -76c0 -48.667 25.333 -73 76 -73v-59z" />
    <glyph glyph-name="u0624" unicode="&#x624;" horiz-adv-x="675" arabic-form="isolated" 
d="M675 -20c0 -118.667 -42.667 -217.999 -128 -297.999l-113 99c60 56.667 90 129.667 90 219c-119.333 0 -220.666 43.333 -303.999 130s-125 190 -125 310c0 121.333 42.167 225.166 126.5 311.499s187.166 129.5 308.499 129.5h144zM523 147.001v587.001
c-72 0 -136.667 -30.833 -194 -92.5s-86 -128.834 -86 -201.501c0 -80 26.667 -148.333 80 -205c54 -58.667 120.667 -88 200 -88zM506 953.002l-181.999 0.000976562v59h78c-18.667 10 -28 33 -28 69c0 37.333 12.667 68.166 38 92.499s56.666 36.5 93.999 36.5v-49
c-50.667 0 -76 -25.333 -76 -76c0 -48.667 25.333 -73 76 -73v-59z" />
    <glyph glyph-name="u0625" unicode="&#x625;" horiz-adv-x="246" arabic-form="isolated" 
d="M245 0h-150v1146h150v-1146zM246 -337l-181.999 0.000976562v59h78c-18.667 10 -28 33 -28 69c0 37.333 12.667 68.166 38 92.499s56.666 36.5 93.999 36.5v-49c-50.667 0 -76 -25.333 -76 -76c0 -48.667 25.333 -73 76 -73v-59z" />
    <glyph glyph-name="u0626" unicode="&#x626;" horiz-adv-x="958" arabic-form="isolated" 
d="M958 398l-146.998 0.00195312v224c0 26 -9 48.833 -27 68.5s-40 29.5 -66 29.5s-48.667 -9.5 -68 -28.5s-29 -41.5 -29 -67.5l-1 -279c0 -34.667 18 -52 54 -52h52c73.333 0 123.666 -7.66699 150.999 -23c52 -29.333 78 -72.333 78 -129
c0 -72.667 -39.333 -145.334 -118 -218.001c-88.667 -81.333 -190.667 -122 -306 -122c-122.667 0 -226 41.667 -310 125s-126 186.333 -126 309v647h151v-647c0 -80 27.5 -147.833 82.5 -203.5s122.5 -83.5 202.5 -83.5c85.333 0 156 29.333 212 88
c39.333 41.333 59 72.666 59 93.999c0 12 -10.667 18.333 -32 19c33.333 -1.33301 18.666 -2 -44.001 -2h-45c-62.667 0 -110 12.333 -142 37c-44 34 -66 101 -66 201v251c0 68 23.5 125.833 70.5 173.5s104.5 71.5 172.5 71.5c67.333 0 124.5 -24 171.5 -72
s70.5 -105.667 70.5 -173v-238zM266.002 963.002l-181.999 0.000976562v59h78c-18.667 10 -28 33 -28 69c0 37.333 12.667 68.166 38 92.499s56.666 36.5 93.999 36.5v-49c-50.667 0 -76 -25.333 -76 -76c0 -48.667 25.333 -73 76 -73v-59z" />
    <glyph glyph-name="u0627" unicode="&#x627;" horiz-adv-x="246" arabic-form="isolated" 
d="M245 0h-150v1146h150v-1146z" />
    <glyph glyph-name="u0628" unicode="&#x628;" horiz-adv-x="1152" arabic-form="isolated" 
d="M1149 195c0 -53.333 -19.5 -99.166 -58.5 -137.499s-85.5 -57.5 -139.5 -57.5h-659c-54 0 -100.5 19.167 -139.5 57.5s-58.5 84.166 -58.5 137.499v687h151v-687c0 -32 15.667 -48 47 -48h659c31.333 0 47 16 47 48v687h151v-687zM671 -149
c0 -21.333 -7.33301 -39.6699 -22 -55.0029s-32.667 -23 -54 -23c-20.667 0 -38.167 7.83301 -52.5 23.5s-21.5 33.834 -21.5 54.501s7.16699 38.834 21.5 54.501s31.833 23.5 52.5 23.5c21.333 0 39.333 -7.66699 54 -23s22 -33.666 22 -54.999z" />
    <glyph glyph-name="u0629" unicode="&#x629;" horiz-adv-x="492" arabic-form="isolated" 
d="M492 199c0 -52.667 -20.167 -99 -60.5 -139s-86.833 -60 -139.5 -60c-54.667 0 -101.167 19.167 -139.5 57.5s-57.5 84.833 -57.5 139.5v488c0 55.333 19 102 57 140s84.667 57 140 57c53.333 0 100 -18.667 140 -56s60 -82.333 60 -135v-492zM341 205v465
c0 37.333 -16 56 -48 56c-31.333 0 -47 -18.667 -47 -56v-463c0 -40 15.333 -60 46 -60c32.667 0 49 19.333 49 58zM276 944l-181.999 0.000976562v59h78c-18.667 10 -28 33 -28 69c0 37.333 12.667 68.166 38 92.499s56.666 36.5 93.999 36.5v-49
c-50.667 0 -76 -25.333 -76 -76c0 -48.667 25.333 -73 76 -73v-59z" />
    <glyph glyph-name="u062A" unicode="&#x62a;" horiz-adv-x="1152" arabic-form="isolated" 
d="M1150 195c0 -53.333 -19.5 -99.166 -58.5 -137.499s-85.5 -57.5 -139.5 -57.5h-659c-54 0 -100.5 19.167 -139.5 57.5s-58.5 84.166 -58.5 137.499v687h151v-687c0 -32 15.667 -48 47 -48h659c31.333 0 47 16 47 48v687h151v-687zM751 1016c0 -19.333 -7 -36 -21 -50
s-30.667 -21 -50 -21s-35.833 7 -49.5 21s-20.5 30.667 -20.5 50s6.83301 35.833 20.5 49.5s30.167 20.5 49.5 20.5s36 -6.83301 50 -20.5s21 -30.167 21 -49.5zM579 1016c0 -19.333 -7 -36 -21 -50s-30.667 -21 -50 -21s-35.833 7 -49.5 21s-20.5 30.667 -20.5 50
s6.83301 35.833 20.5 49.5s30.167 20.5 49.5 20.5s36 -6.83301 50 -20.5s21 -30.167 21 -49.5z" />
    <glyph glyph-name="u062B" unicode="&#x62b;" horiz-adv-x="1152" arabic-form="isolated" 
d="M1150 195c0 -53.333 -19.5 -99.166 -58.5 -137.499s-85.5 -57.5 -139.5 -57.5h-659c-54 0 -100.5 19.167 -139.5 57.5s-58.5 84.166 -58.5 137.499v687h151v-687c0 -32 15.667 -48 47 -48h659c31.333 0 47 16 47 48v687h151v-687zM662 1156
c0 -19.333 -7 -35.833 -21 -49.5s-30.667 -20.5 -50 -20.5c-18.667 0 -35 7 -49 21s-21 30.333 -21 49c0 19.333 6.83301 36 20.5 50s30.167 21 49.5 21s36 -7 50 -21s21 -30.667 21 -50zM751 1015c0 -19.333 -7 -35.833 -21 -49.5s-30.667 -20.5 -50 -20.5
c-18.667 0 -35 7 -49 21s-21 30.333 -21 49c0 19.333 6.83301 36 20.5 50s30.167 21 49.5 21s36 -7 50 -21s21 -30.667 21 -50zM579 1015c0 -19.333 -7 -35.833 -21 -49.5s-30.667 -20.5 -50 -20.5c-18.667 0 -35 7 -49 21s-21 30.333 -21 49c0 19.333 6.83301 36 20.5 50
s30.167 21 49.5 21s36 -7 50 -21s21 -30.667 21 -50z" />
    <glyph glyph-name="u062C" unicode="&#x62c;" horiz-adv-x="588" arabic-form="isolated" 
d="M584 -139c0 -19.333 -7 -36 -21 -50s-30.667 -21 -50 -21s-35.833 7 -49.5 21s-20.5 30.667 -20.5 50c0 18.667 7 35 21 49s30.333 21 49 21c19.333 0 36 -6.83301 50 -20.5s21 -30.167 21 -49.5zM588 199c0 -54 -18.833 -100.668 -56.5 -140.001s-83.167 -59 -136.5 -59
h-55c-26.667 0 -49 -9.5 -67 -28.5s-27 -41.833 -27 -68.5s9.16699 -49.5 27.5 -68.5s40.833 -28.5 67.5 -28.5h54v-151h-56c-68 0 -125.667 24 -173 72s-71 106 -71 174c0 68.667 23.667 126.834 71 174.501s105.333 71.5 174 71.5h48c32.667 0 49 16 49 48v471
c0 37.333 -16 56 -48 56c-31.333 0 -47 -18.667 -47 -56v-471h-151v486c0 55.333 19 102 57 140s84.667 57 140 57c53.333 0 100 -18.667 140 -56s60 -82.333 60 -135v-488z" />
    <glyph glyph-name="u062D" unicode="&#x62d;" horiz-adv-x="588" arabic-form="isolated" 
d="M588 199c0 -54 -18.833 -100.668 -56.5 -140.001s-83.167 -59 -136.5 -59h-55c-26.667 0 -49 -9.5 -67 -28.5s-27 -41.833 -27 -68.5s9.16699 -49.5 27.5 -68.5s40.833 -28.5 67.5 -28.5h54v-151h-56c-68 0 -125.667 24 -173 72s-71 106 -71 174
c0 68.667 23.667 126.834 71 174.501s105.333 71.5 174 71.5h48c32.667 0 49 16 49 48v471c0 37.333 -16 56 -48 56c-31.333 0 -47 -18.667 -47 -56v-471h-151v486c0 55.333 19 102 57 140s84.667 57 140 57c53.333 0 100 -18.667 140 -56s60 -82.333 60 -135v-488z" />
    <glyph glyph-name="u062E" unicode="&#x62e;" horiz-adv-x="588" arabic-form="isolated" 
d="M459 1016c0 -19.333 -7 -35.833 -21 -49.5s-30.667 -20.5 -50 -20.5c-18.667 0 -35 7 -49 21s-21 30.333 -21 49c0 19.333 6.83301 36 20.5 50s30.167 21 49.5 21s36 -7 50 -21s21 -30.667 21 -50zM588 199c0 -54 -18.833 -100.668 -56.5 -140.001
s-83.167 -59 -136.5 -59h-55c-26.667 0 -49 -9.5 -67 -28.5s-27 -41.833 -27 -68.5s9.16699 -49.5 27.5 -68.5s40.833 -28.5 67.5 -28.5h54v-151h-56c-68 0 -125.667 24 -173 72s-71 106 -71 174c0 68.667 23.667 126.834 71 174.501s105.333 71.5 174 71.5h48
c32.667 0 49 16 49 48v471c0 37.333 -16 56 -48 56c-31.333 0 -47 -18.667 -47 -56v-471h-151v486c0 55.333 19 102 57 140s84.667 57 140 57c53.333 0 100 -18.667 140 -56s60 -82.333 60 -135v-488z" />
    <glyph glyph-name="u062F" unicode="&#x62f;" horiz-adv-x="524" arabic-form="isolated" 
d="M524 197c0 -54 -18.832 -100.334 -56.499 -139.001s-83.167 -58 -136.5 -58h-236v147h226c34.667 0 52 17.667 52 53v240c0 80.667 -26.333 149.834 -79 207.501s-119 86.5 -199 86.5v147c121.333 0 223.666 -43.333 306.999 -130c81.333 -85.333 122 -189 122 -311v-243
z" />
    <glyph glyph-name="u0630" unicode="&#x630;" horiz-adv-x="525" arabic-form="isolated" 
d="M236 1015c0 -19.333 -7 -35.833 -21 -49.5s-30.667 -20.5 -50 -20.5c-18.667 0 -35 7 -49 21s-21 30.333 -21 49c0 19.333 6.83301 36 20.5 50s30.167 21 49.5 21s36 -7 50 -21s21 -30.667 21 -50zM524 197c0 -54 -18.832 -100.334 -56.499 -139.001
s-83.167 -58 -136.5 -58h-236v147h226c34.667 0 52 17.667 52 53v240c0 80.667 -26.333 149.834 -79 207.501s-119 86.5 -199 86.5v147c121.333 0 223.666 -43.333 306.999 -130c81.333 -85.333 122 -189 122 -311v-243z" />
    <glyph glyph-name="u0631" unicode="&#x631;" horiz-adv-x="304" arabic-form="isolated" 
d="M306 -21c0 -118.667 -42.667 -218.001 -128 -298.001l-113 99c60 56.667 90 133.334 90 230.001v872h151v-903z" />
    <glyph glyph-name="u0632" unicode="&#x632;" horiz-adv-x="310" arabic-form="isolated" 
d="M306 -21c0 -118.667 -42.667 -218.001 -128 -298.001l-113 99c60 56.667 90 133.334 90 230.001v872h151v-903zM301 1014c0 -19.333 -7 -35.833 -21 -49.5s-30.667 -20.5 -50 -20.5c-18.667 0 -35 7 -49 21s-21 30.333 -21 49c0 19.333 6.83301 36 20.5 50
s30.167 21 49.5 21s36 -7 50 -21s21 -30.667 21 -50z" />
    <glyph glyph-name="u0633" unicode="&#x633;" horiz-adv-x="1464" arabic-form="isolated" 
d="M1464 239c0 -66.667 -17.001 -121.999 -51.001 -165.999c-37.333 -48.667 -88.333 -73 -153 -73c-57.333 0 -97 8.66699 -119 26c-28.667 -17.333 -67.667 -26 -117 -26c-53.333 0 -92 9.33301 -116 28c-86 -150 -211 -225 -375 -225
c-121.333 0 -224.666 42.667 -309.999 128s-128 188.666 -128 309.999v641h151v-641c0 -80 27.833 -147.833 83.5 -203.5s123.5 -83.5 203.5 -83.5c85.333 0 155 30.667 209 92c52.667 58.667 79 131 79 217v619h151v-655c0 -53.333 15.667 -80 47 -80c22.667 0 37 7 43 21
c3.33301 8 5 27.667 5 59v655h151v-655c0 -30 2 -49.667 6 -59c6 -14 19.333 -21 40 -21c24.667 0 40 8 46 24c2 5.33301 3 24.333 3 57v654h151v-643z" />
    <glyph glyph-name="u0634" unicode="&#x634;" horiz-adv-x="1464" arabic-form="isolated" 
d="M1464 239c0 -66.667 -17.001 -121.999 -51.001 -165.999c-37.333 -48.667 -88.333 -73 -153 -73c-57.333 0 -97 8.66699 -119 26c-28.667 -17.333 -67.667 -26 -117 -26c-53.333 0 -92 9.33301 -116 28c-86 -150 -211 -225 -375 -225
c-121.333 0 -224.666 42.667 -309.999 128s-128 188.666 -128 309.999v641h151v-641c0 -80 27.833 -147.833 83.5 -203.5s123.5 -83.5 203.5 -83.5c85.333 0 155 30.667 209 92c52.667 58.667 79 131 79 217v619h151v-655c0 -53.333 15.667 -80 47 -80c22.667 0 37 7 43 21
c3.33301 8 5 27.667 5 59v655h151v-655c0 -30 2 -49.667 6 -59c6 -14 19.333 -21 40 -21c24.667 0 40 8 46 24c2 5.33301 3 24.333 3 57v654h151v-643zM1214 1156c0 -19.333 -7 -35.833 -21 -49.5s-30.667 -20.5 -50 -20.5c-18.667 0 -35 7 -49 21s-21 30.333 -21 49
c0 19.333 6.83301 36 20.5 50s30.167 21 49.5 21s36 -7 50 -21s21 -30.667 21 -50zM1303 1015c0 -19.333 -7 -35.833 -21 -49.5s-30.667 -20.5 -50 -20.5c-18.667 0 -35 7 -49 21s-21 30.333 -21 49c0 19.333 6.83301 36 20.5 50s30.167 21 49.5 21s36 -7 50 -21
s21 -30.667 21 -50zM1131 1015c0 -19.333 -7 -35.833 -21 -49.5s-30.667 -20.5 -50 -20.5c-18.667 0 -35 7 -49 21s-21 30.333 -21 49c0 19.333 6.83301 36 20.5 50s30.167 21 49.5 21s36 -7 50 -21s21 -30.667 21 -50z" />
    <glyph glyph-name="u0635" unicode="&#x635;" horiz-adv-x="1694" arabic-form="isolated" 
d="M1694 200c0 -57.333 -19.334 -104.999 -58.001 -142.999s-87 -57 -145 -57h-470c-55.333 0 -93 9.33301 -113 28c-86 -150 -211 -225 -375 -225c-121.333 0 -224.666 42.667 -309.999 128s-128 188.666 -128 309.999v641h151v-641c0 -80 27.833 -147.833 83.5 -203.5
s123.5 -83.5 203.5 -83.5c85.333 0 155 30.667 209 92c52.667 58.667 79 131 79 217v619h151v-354c103.333 236 220 354 350 354c120 0 213.667 -43.333 281 -130c60.667 -78.667 91 -179.667 91 -303v-249zM1543 210.001v239c0 80 -18 145.667 -54 197
c-41.333 59.333 -100.333 89 -177 89c-59.333 0 -127.333 -68.333 -204 -205c-48 -86 -92 -182.333 -132 -289c-4.66699 -12.667 -7 -26 -7 -40c0 -36 17 -54 51 -54h464c39.333 0 59 21 59 63z" />
    <glyph glyph-name="u0636" unicode="&#x636;" horiz-adv-x="1692" arabic-form="isolated" 
d="M1392 1015c0 -19.333 -7 -35.833 -21 -49.5s-30.667 -20.5 -50 -20.5c-18.667 0 -35 7 -49 21s-21 30.333 -21 49c0 19.333 6.83301 36 20.5 50s30.167 21 49.5 21s36 -7 50 -21s21 -30.667 21 -50zM1694 200c0 -57.333 -19.334 -104.999 -58.001 -142.999
s-87 -57 -145 -57h-470c-55.333 0 -93 9.33301 -113 28c-86 -150 -211 -225 -375 -225c-121.333 0 -224.666 42.667 -309.999 128s-128 188.666 -128 309.999v641h151v-641c0 -80 27.833 -147.833 83.5 -203.5s123.5 -83.5 203.5 -83.5c85.333 0 155 30.667 209 92
c52.667 58.667 79 131 79 217v619h151v-354c103.333 236 220 354 350 354c120 0 213.667 -43.333 281 -130c60.667 -78.667 91 -179.667 91 -303v-249zM1543 210.001v239c0 80 -18 145.667 -54 197c-41.333 59.333 -100.333 89 -177 89
c-59.333 0 -127.333 -68.333 -204 -205c-48 -86 -92 -182.333 -132 -289c-4.66699 -12.667 -7 -26 -7 -40c0 -36 17 -54 51 -54h464c39.333 0 59 21 59 63z" />
    <glyph glyph-name="u0637" unicode="&#x637;" horiz-adv-x="1024" arabic-form="isolated" 
d="M1023 197c0 -57.333 -19.501 -104.5 -58.501 -141.5s-87.167 -55.5 -144.5 -55.5h-522c-28.667 0 -53.667 9 -75 27c-17.333 -18 -36.666 -27 -57.999 -27h-70v147h11c29.333 0 44 19.667 44 59v940h151v-618c103.333 236 220 354 350 354
c120 0 213.667 -43.333 281 -130c60.667 -78.667 91 -179.667 91 -303v-252zM871.999 210v239c0 80 -18 145.667 -54 197c-41.333 59.333 -100.333 89 -177 89c-59.333 0 -127.333 -68.333 -204 -205c-48 -86 -92 -182.333 -132 -289c-4.66699 -12.667 -7 -26 -7 -40
c0 -36 17 -54 51 -54h464c39.333 0 59 21 59 63z" />
    <glyph glyph-name="u0638" unicode="&#x638;" horiz-adv-x="1026" arabic-form="isolated" 
d="M1023 197c0 -57.333 -19.501 -104.5 -58.501 -141.5s-87.167 -55.5 -144.5 -55.5h-522c-28.667 0 -53.667 9 -75 27c-17.333 -18 -36.666 -27 -57.999 -27h-70v147h11c29.333 0 44 19.667 44 59v940h151v-618c103.333 236 220 354 350 354
c120 0 213.667 -43.333 281 -130c60.667 -78.667 91 -179.667 91 -303v-252zM871.999 210v239c0 80 -18 145.667 -54 197c-41.333 59.333 -100.333 89 -177 89c-59.333 0 -127.333 -68.333 -204 -205c-48 -86 -92 -182.333 -132 -289c-4.66699 -12.667 -7 -26 -7 -40
c0 -36 17 -54 51 -54h464c39.333 0 59 21 59 63zM724.999 1015c0 -19.333 -7 -35.833 -21 -49.5s-30.667 -20.5 -50 -20.5c-18.667 0 -35 7 -49 21s-21 30.333 -21 49c0 19.333 6.83301 36 20.5 50s30.167 21 49.5 21s36 -7 50 -21s21 -30.667 21 -50z" />
    <glyph glyph-name="u0639" unicode="&#x639;" horiz-adv-x="628" arabic-form="isolated" 
d="M628 0l-287 0.000976562c-28 0 -50.833 -9.5 -68.5 -28.5s-26.5 -42.5 -26.5 -70.5c0 -26.667 9.33301 -49.167 28 -67.5s41.334 -27.5 68.001 -27.5h53v-151h-55c-68 0 -125.833 23.5 -173.5 70.5s-71.5 104.5 -71.5 172.5c0 53.333 15.5 101.5 46.5 144.5
s71.833 72.833 122.5 89.5c-84.667 77.333 -127 180.333 -127 309c0 121.333 42.167 225.166 126.5 311.499s187.166 129.5 308.499 129.5h56v-147h-56c-80.667 0 -148.667 -28.667 -204 -86s-83 -126.666 -83 -207.999c0 -80.667 27.833 -149.834 83.5 -207.501
s123.5 -86.5 203.5 -86.5h56v-147z" />
    <glyph glyph-name="u063A" unicode="&#x63a;" horiz-adv-x="630" arabic-form="isolated" 
d="M628 0l-287 0.000976562c-28 0 -50.833 -9.5 -68.5 -28.5s-26.5 -42.5 -26.5 -70.5c0 -26.667 9.33301 -49.167 28 -67.5s41.334 -27.5 68.001 -27.5h53v-151h-55c-68 0 -125.833 23.5 -173.5 70.5s-71.5 104.5 -71.5 172.5c0 53.333 15.5 101.5 46.5 144.5
s71.833 72.833 122.5 89.5c-84.667 77.333 -127 180.333 -127 309c0 121.333 42.167 225.166 126.5 311.499s187.166 129.5 308.499 129.5h56v-147h-56c-80.667 0 -148.667 -28.667 -204 -86s-83 -126.666 -83 -207.999c0 -80.667 27.833 -149.834 83.5 -207.501
s123.5 -86.5 203.5 -86.5h56v-147zM630 1016c0 -19.333 -7 -35.833 -21 -49.5s-30.667 -20.5 -50 -20.5c-18.667 0 -35 7 -49 21s-21 30.333 -21 49c0 19.333 6.83301 36 20.5 50s30.167 21 49.5 21s36 -7 50 -21s21 -30.667 21 -50z" />
    <glyph glyph-name="u0641" unicode="&#x641;" horiz-adv-x="1436" arabic-form="isolated" 
d="M1055 1015c0 -19.333 -7 -35.833 -21 -49.5s-30.667 -20.5 -50 -20.5c-18.667 0 -35 7 -49 21s-21 30.333 -21 49c0 19.333 6.83301 36 20.5 50s30.167 21 49.5 21s36 -7 50 -21s21 -30.667 21 -50zM1437 444c0 -116 -38 -216.667 -114 -302
c-84 -94.667 -193.667 -142 -329 -142h-700c-64.667 -0 -114.667 22.333 -150 67c-32.667 40.667 -49 94.334 -49 161.001v654h150v-664c0 -47.333 19.667 -71 59 -71h362c-74.667 82.667 -112 181 -112 295c0 122.667 42.667 226.667 128 312s189.333 128 312 128
s227.167 -42.333 313.5 -127s129.5 -188.334 129.5 -311.001zM1289 443c-0.666992 82 -29.4971 151.501 -86.4971 208.501s-126.5 85.5 -208.5 85.5s-151.5 -28.5 -208.5 -85.5s-85.833 -126.5 -86.5 -208.5c-0.666992 -84 27.166 -154.5 83.499 -211.5
s126.5 -85.5 210.5 -85.5c83.333 0 153.666 28.667 210.999 86s85.666 127.666 84.999 210.999z" />
    <glyph glyph-name="u0642" unicode="&#x642;" horiz-adv-x="968" arabic-form="isolated" 
d="M972 1015c0 -19.333 -7 -36 -21 -50s-30.667 -21 -50 -21s-35.833 7 -49.5 21s-20.5 30.667 -20.5 50s6.83301 35.833 20.5 49.5s30.167 20.5 49.5 20.5s36 -6.83301 50 -20.5s21 -30.167 21 -49.5zM800 1015c0 -19.333 -7 -36 -21 -50s-30.667 -21 -50 -21
s-35.833 7 -49.5 21s-20.5 30.667 -20.5 50s6.83301 35.833 20.5 49.5s30.167 20.5 49.5 20.5s36 -6.83301 50 -20.5s21 -30.167 21 -49.5zM968 241c0 -136 -48.6689 -246.001 -146.002 -330.001c-85.333 -73.333 -182.666 -110 -291.999 -110
c-121.333 0 -224.166 42 -308.499 126s-126.5 186.667 -126.5 308v647h148v-647c0 -80 27.833 -147.833 83.5 -203.5s123.5 -83.5 203.5 -83.5c68 0 127.333 21 178 63c-20 0 -53.667 12.333 -101 37c-158.667 83.333 -238 215.333 -238 396
c0 122.667 43.833 226.334 131.5 311.001s193.167 127 316.5 127h151v-641zM816.998 256.999l0.000976562 480c-82.667 0 -153 -28.333 -211 -85s-87.333 -126.334 -88 -209.001c-0.666992 -80 26.166 -148.667 80.499 -206s121.5 -87.666 201.5 -90.999
c11.333 32 17 69 17 111z" />
    <glyph glyph-name="u0643" unicode="&#x643;" horiz-adv-x="1150" arabic-form="isolated" 
d="M1150 944h-536v147h536v-147zM1149 441c0 -124.667 -41.499 -229.334 -124.499 -314.001s-186.5 -127 -310.5 -127h-421c-54 0 -100.5 19.167 -139.5 57.5s-58.5 84.166 -58.5 137.499v687h151v-687c0 -32 15.667 -48 47 -48h421c80 0 147.833 28.833 203.5 86.5
s83.5 126.834 83.5 207.501s-27.667 149.667 -83 207s-123.333 86 -204 86h-100v148h100c121.333 0 224.166 -43.167 308.499 -129.5s126.5 -190.166 126.5 -311.499z" />
    <glyph glyph-name="u0644" unicode="&#x644;" horiz-adv-x="973" arabic-form="isolated" 
d="M973 232c0 -126.667 -47.001 -231.333 -141.001 -314c-86 -76 -185.333 -114 -298 -114c-121.333 0 -224.833 42.333 -310.5 127s-128.5 187.667 -128.5 309v643h151v-643c0 -80 28 -147.833 84 -203.5s124 -83.5 204 -83.5c88.667 0 159.334 29.667 212.001 89
c50.667 56.667 76 130 76 220v884h151v-914z" />
    <glyph glyph-name="u0645" unicode="&#x645;" horiz-adv-x="695" arabic-form="isolated" 
d="M695 199c0 -55.333 -19.5 -102.333 -58.5 -141s-86.167 -58 -141.5 -58h-197c-34 0 -51 -16.333 -51 -49v-296h-151v296c0 130.667 67.333 196 202 196v537c0 55.333 19 102 57 140s84.667 57 140 57c53.333 0 100 -18.667 140 -56s60 -82.333 60 -135v-491zM544 195v474
c0 37.333 -16 56 -48 56c-31.333 0 -47 -18.667 -47 -56v-522h46c32.667 0 49 16 49 48z" />
    <glyph glyph-name="u0646" unicode="&#x646;" horiz-adv-x="973" arabic-form="isolated" 
d="M612 1015c0 -19.333 -7 -35.833 -21 -49.5s-30.667 -20.5 -50 -20.5c-18.667 0 -35 7 -49 21s-21 30.333 -21 49c0 19.333 6.83301 36 20.5 50s30.167 21 49.5 21s36 -7 50 -21s21 -30.667 21 -50zM973 232c0 -126.667 -47.001 -231.333 -141.001 -314
c-86 -76 -185.333 -114 -298 -114c-121.333 0 -224.833 42.333 -310.5 127s-128.5 187.667 -128.5 309v642h151v-642c0 -80 28 -147.833 84 -203.5s124 -83.5 204 -83.5c88.667 0 159.334 29.667 212.001 89c50.667 56.667 76 130 76 220v620h151v-650z" />
    <glyph glyph-name="u0647" unicode="&#x647;" horiz-adv-x="492" arabic-form="isolated" 
d="M492 199c0 -52.667 -20.167 -99 -60.5 -139s-86.833 -60 -139.5 -60c-54.667 0 -101.167 19.167 -139.5 57.5s-57.5 84.833 -57.5 139.5v488c0 55.333 19 102 57 140s84.667 57 140 57c53.333 0 100 -18.667 140 -56s60 -82.333 60 -135v-492zM341 205v465
c0 37.333 -16 56 -48 56c-31.333 0 -47 -18.667 -47 -56v-463c0 -40 15.333 -60 46 -60c32.667 0 49 19.333 49 58z" />
    <glyph glyph-name="u0648" unicode="&#x648;" horiz-adv-x="675" arabic-form="isolated" 
d="M675 -20c0 -118.667 -42.667 -217.999 -128 -297.999l-113 99c60 56.667 90 129.667 90 219c-119.333 0 -220.666 43.333 -303.999 130s-125 190 -125 310c0 121.333 42.167 225.166 126.5 311.499s187.166 129.5 308.499 129.5h144zM523 147.001v587.001
c-72 0 -136.667 -30.833 -194 -92.5s-86 -128.834 -86 -201.501c0 -80 26.667 -148.333 80 -205c54 -58.667 120.667 -88 200 -88z" />
    <glyph glyph-name="u0649" unicode="&#x649;" horiz-adv-x="958" arabic-form="isolated" 
d="M958 398l-146.998 0.00195312v224c0 26 -9 48.833 -27 68.5s-40 29.5 -66 29.5s-48.667 -9.5 -68 -28.5s-29 -41.5 -29 -67.5l-1 -279c0 -34.667 18 -52 54 -52h52c73.333 0 123.666 -7.66699 150.999 -23c52 -29.333 78 -72.333 78 -129
c0 -72.667 -39.333 -145.334 -118 -218.001c-88.667 -81.333 -190.667 -122 -306 -122c-122.667 0 -226 41.667 -310 125s-126 186.333 -126 309v647h151v-647c0 -80 27.5 -147.833 82.5 -203.5s122.5 -83.5 202.5 -83.5c85.333 0 156 29.333 212 88
c39.333 41.333 59 72.666 59 93.999c0 12 -10.667 18.333 -32 19c33.333 -1.33301 18.666 -2 -44.001 -2h-45c-62.667 0 -110 12.333 -142 37c-44 34 -66 101 -66 201v251c0 68 23.5 125.833 70.5 173.5s104.5 71.5 172.5 71.5c67.333 0 124.5 -24 171.5 -72
s70.5 -105.667 70.5 -173v-238z" />
    <glyph glyph-name="u064A" unicode="&#x64a;" horiz-adv-x="958" arabic-form="isolated" 
d="M958 398l-146.998 0.00195312v224c0 26 -9 48.833 -27 68.5s-40 29.5 -66 29.5s-48.667 -9.5 -68 -28.5s-29 -41.5 -29 -67.5l-1 -279c0 -34.667 18 -52 54 -52h52c73.333 0 123.666 -7.66699 150.999 -23c52 -29.333 78 -72.333 78 -129
c0 -72.667 -39.333 -145.334 -118 -218.001c-88.667 -81.333 -190.667 -122 -306 -122c-122.667 0 -226 41.667 -310 125s-126 186.333 -126 309v647h151v-647c0 -80 27.5 -147.833 82.5 -203.5s122.5 -83.5 202.5 -83.5c85.333 0 156 29.333 212 88
c39.333 41.333 59 72.666 59 93.999c0 12 -10.667 18.333 -32 19c33.333 -1.33301 18.666 -2 -44.001 -2h-45c-62.667 0 -110 12.333 -142 37c-44 34 -66 101 -66 201v251c0 68 23.5 125.833 70.5 173.5s104.5 71.5 172.5 71.5c67.333 0 124.5 -24 171.5 -72
s70.5 -105.667 70.5 -173v-238z" />
    <glyph glyph-name="u067E" unicode="&#x67e;" horiz-adv-x="1152" arabic-form="isolated" 
d="M1150 195c0 -53.333 -19.5 -99.166 -58.5 -137.499s-85.5 -57.5 -139.5 -57.5h-659c-54 0 -100.5 19.167 -139.5 57.5s-58.5 84.166 -58.5 137.499v687h151v-687c0 -32 15.667 -48 47 -48h659c31.333 0 47 16 47 48v687h151v-687zM755 -139c0 -19.333 -7 -36 -21 -50
s-30.667 -21 -50 -21s-35.833 7 -49.5 21s-20.5 30.667 -20.5 50c0 18.667 7 35 21 49s30.333 21 49 21c19.333 0 36 -6.83301 50 -20.5s21 -30.167 21 -49.5zM583 -139c0 -19.333 -7 -36 -21 -50s-30.667 -21 -50 -21s-35.833 7 -49.5 21s-20.5 30.667 -20.5 50
c0 18.667 7 35 21 49s30.333 21 49 21c19.333 0 36 -6.83301 50 -20.5s21 -30.167 21 -49.5zM667 -276c0 -19.333 -7 -36 -21 -50s-30.667 -21 -50 -21s-35.833 7 -49.5 21s-20.5 30.667 -20.5 50c0 18.667 7 35 21 49s30.333 21 49 21c19.333 0 36 -6.83301 50 -20.5
s21 -30.167 21 -49.5z" />
    <glyph glyph-name="u0686" unicode="&#x686;" horiz-adv-x="612" arabic-form="isolated" 
d="M588 199c0 -54 -18.833 -100.668 -56.5 -140.001s-83.167 -59 -136.5 -59h-55c-26.667 0 -49 -9.5 -67 -28.5s-27 -41.833 -27 -68.5s9.16699 -49.5 27.5 -68.5s40.833 -28.5 67.5 -28.5h54v-151h-56c-68 0 -125.667 24 -173 72s-71 106 -71 174
c0 68.667 23.667 126.834 71 174.501s105.333 71.5 174 71.5h48c32.667 0 49 16 49 48v471c0 37.333 -16 56 -48 56c-31.333 0 -47 -18.667 -47 -56v-471h-151v486c0 55.333 19 102 57 140s84.667 57 140 57c53.333 0 100 -18.667 140 -56s60 -82.333 60 -135v-488z
M631 -101.001c0 -38 -19 -57 -57 -57s-57 19 -57 57s19 57 57 57s57 -19 57 -57zM500 -101.001c0 -38 -19.333 -57 -58 -57c-37.333 0 -56 19 -56 57s18.667 57 56 57c38.667 0 58 -19 58 -57zM563 -203.001c0 -38 -19.333 -57 -58 -57c-37.333 0 -56 19 -56 57
c0 37.333 18.667 56 56 56c38.667 0 58 -18.667 58 -56z" />
    <glyph glyph-name="u0698" unicode="&#x698;" horiz-adv-x="365" arabic-form="isolated" 
d="M302 1156c0 -19.333 -7 -35.833 -21 -49.5s-30.667 -20.5 -50 -20.5c-18.667 0 -35 7 -49 21s-21 30.333 -21 49c0 19.333 6.83301 36 20.5 50s30.167 21 49.5 21s36 -7 50 -21s21 -30.667 21 -50zM391 1015c0 -19.333 -7 -35.833 -21 -49.5s-30.667 -20.5 -50 -20.5
c-18.667 0 -35 7 -49 21s-21 30.333 -21 49c0 19.333 6.83301 36 20.5 50s30.167 21 49.5 21s36 -7 50 -21s21 -30.667 21 -50zM219 1015c0 -19.333 -7 -35.833 -21 -49.5s-30.667 -20.5 -50 -20.5c-18.667 0 -35 7 -49 21s-21 30.333 -21 49c0 19.333 6.83301 36 20.5 50
s30.167 21 49.5 21s36 -7 50 -21s21 -30.667 21 -50zM306 -21c0 -118.667 -42.667 -218.001 -128 -298.001l-113 99c60 56.667 90 133.334 90 230.001v872h151v-903z" />
    <glyph glyph-name="u06AF" unicode="&#x6af;" horiz-adv-x="1148" arabic-form="isolated" 
d="M1148 1140h-535v56h535v-56zM1150 944h-536v147h536v-147zM1149 441c0 -124.667 -41.499 -229.334 -124.499 -314.001s-186.5 -127 -310.5 -127h-421c-54 0 -100.5 19.167 -139.5 57.5s-58.5 84.166 -58.5 137.499v687h151v-687c0 -32 15.667 -48 47 -48h421
c80 0 147.833 28.833 203.5 86.5s83.5 126.834 83.5 207.501s-27.667 149.667 -83 207s-123.333 86 -204 86h-100v148h100c121.333 0 224.166 -43.167 308.499 -129.5s126.5 -190.166 126.5 -311.499z" />
    <glyph glyph-name="uFB57" unicode="&#x67e;" horiz-adv-x="1256" arabic-form="final" 
d="M1267 0l-70 0.000976562c-48.667 0 -90.667 15 -126 45c-30 -30 -69.667 -45 -119 -45h-659c-54 0 -100.5 19.167 -139.5 57.5s-58.5 84.166 -58.5 137.499v687h151v-687c0 -32 15.667 -48 47 -48h659c31.333 0 47 16 47 48v687h151v-687c0 -32 15.667 -48 47 -48h70
v-147zM755 -138.999c0 -19.333 -7 -36 -21 -50s-30.667 -21 -50 -21s-35.833 7 -49.5 21s-20.5 30.667 -20.5 50c0 18.667 7 35 21 49s30.333 21 49 21c19.333 0 36 -6.83301 50 -20.5s21 -30.167 21 -49.5zM583 -138.999c0 -19.333 -7 -36 -21 -50s-30.667 -21 -50 -21
s-35.833 7 -49.5 21s-20.5 30.667 -20.5 50c0 18.667 7 35 21 49s30.333 21 49 21c19.333 0 36 -6.83301 50 -20.5s21 -30.167 21 -49.5zM667 -275.999c0 -19.333 -7 -36 -21 -50s-30.667 -21 -50 -21s-35.833 7 -49.5 21s-20.5 30.667 -20.5 50c0 18.667 7 35 21 49
s30.333 21 49 21c19.333 0 36 -6.83301 50 -20.5s21 -30.167 21 -49.5z" />
    <glyph glyph-name="uFB58" unicode="&#x67e;" horiz-adv-x="320" arabic-form="initial" 
d="M256 195c0 -53.333 -19.5 -99.167 -58.5 -137.5s-85.5 -57.5 -139.5 -57.5h-68v147h68c31.333 0 47 16 47 48v687h151v-687zM339 -139.001c0 -19.333 -7 -36 -21 -50s-30.667 -21 -50 -21s-35.833 7 -49.5 21s-20.5 30.667 -20.5 50c0 18.667 7 35 21 49s30.333 21 49 21
c19.333 0 36 -6.83301 50 -20.5s21 -30.167 21 -49.5zM167 -139.001c0 -19.333 -7 -36 -21 -50s-30.667 -21 -50 -21s-35.833 7 -49.5 21s-20.5 30.667 -20.5 50c0 18.667 7 35 21 49s30.333 21 49 21c19.333 0 36 -6.83301 50 -20.5s21 -30.167 21 -49.5zM251 -276.001
c0 -19.333 -7 -36 -21 -50s-30.667 -21 -50 -21s-35.833 7 -49.5 21s-20.5 30.667 -20.5 50c0 18.667 7 35 21 49s30.333 21 49 21c19.333 0 36 -6.83301 50 -20.5s21 -30.167 21 -49.5z" />
    <glyph glyph-name="uFB59" unicode="&#x67e;" horiz-adv-x="364" arabic-form="medial" 
d="M383 0h-74c-48.667 0 -90.667 15 -126 45c-30 -30 -69.667 -45 -119 -45h-74v147h74c31.333 0 47 16 47 48v687h151v-687c0 -32 15.667 -48 47 -48h74v-147zM338 -139c0 -19.333 -7 -36 -21 -50s-30.667 -21 -50 -21s-35.833 7 -49.5 21s-20.5 30.667 -20.5 50
c0 18.667 7 35 21 49s30.333 21 49 21c19.333 0 36 -6.83301 50 -20.5s21 -30.167 21 -49.5zM166 -139c0 -19.333 -7 -36 -21 -50s-30.667 -21 -50 -21s-35.833 7 -49.5 21s-20.5 30.667 -20.5 50c0 18.667 7 35 21 49s30.333 21 49 21c19.333 0 36 -6.83301 50 -20.5
s21 -30.167 21 -49.5zM250 -276c0 -19.333 -7 -36 -21 -50s-30.667 -21 -50 -21s-35.833 7 -49.5 21s-20.5 30.667 -20.5 50c0 18.667 7 35 21 49s30.333 21 49 21c19.333 0 36 -6.83301 50 -20.5s21 -30.167 21 -49.5z" />
    <glyph glyph-name="uFB7B" unicode="&#x686;" horiz-adv-x="635" arabic-form="final" 
d="M645 0l-10.001 -0.000976562c-46 0 -86.667 15 -122 45c-35.333 -30 -74.666 -45 -117.999 -45h-55c-26.667 0 -49 -9.5 -67 -28.5s-27 -41.833 -27 -68.5s9.16699 -49.5 27.5 -68.5s40.833 -28.5 67.5 -28.5h54v-151h-56c-68 0 -125.667 24 -173 72s-71 106 -71 174
c0 68.667 23.667 126.834 71 174.501s105.333 71.5 174 71.5h48c32.667 0 49 16 49 48v471c0 37.333 -16 56 -48 56c-31.333 0 -47 -18.667 -47 -56v-471h-151v486c0 55.333 19 102 57 140s84.667 57 140 57c53.333 0 100 -18.667 140 -56s60 -82.333 60 -135v-492
c0 -32 15.667 -48 47 -48h10v-147zM630.999 -101.001c0 -38 -19 -57 -57 -57s-57 19 -57 57s19 57 57 57s57 -19 57 -57zM499.999 -101.001c0 -38 -19.333 -57 -58 -57c-37.333 0 -56 19 -56 57s18.667 57 56 57c38.667 0 58 -19 58 -57zM562.999 -203.001
c0 -38 -19.333 -57 -58 -57c-37.333 0 -56 19 -56 57c0 37.333 18.667 56 56 56c38.667 0 58 -18.667 58 -56z" />
    <glyph glyph-name="uFB7C" unicode="&#x686;" horiz-adv-x="444" arabic-form="initial" 
d="M443 199c0 -54 -18.833 -100.667 -56.5 -140s-83.167 -59 -136.5 -59h-260v147h253c32.667 0 49 16 49 48v471c0 37.333 -16 56 -48 56c-31.333 0 -47 -18.667 -47 -56v-471h-151v486c0 55.333 19 102 57 140s84.667 57 140 57c53.333 0 100 -18.667 140 -56
s60 -82.333 60 -135v-488zM402 -140c0 -19.333 -7 -36 -21 -50s-30.667 -21 -50 -21s-35.833 7 -49.5 21s-20.5 30.667 -20.5 50c0 18.667 7 35 21 49s30.333 21 49 21c19.333 0 36 -6.83301 50 -20.5s21 -30.167 21 -49.5zM230 -140c0 -19.333 -7 -36 -21 -50
s-30.667 -21 -50 -21s-35.833 7 -49.5 21s-20.5 30.667 -20.5 50c0 18.667 7 35 21 49s30.333 21 49 21c19.333 0 36 -6.83301 50 -20.5s21 -30.167 21 -49.5zM314 -277c0 -19.333 -7 -36 -21 -50s-30.667 -21 -50 -21s-35.833 7 -49.5 21s-20.5 30.667 -20.5 50
c0 18.667 7 35 21 49s30.333 21 49 21c19.333 0 36 -6.83301 50 -20.5s21 -30.167 21 -49.5z" />
    <glyph glyph-name="uFB7D" unicode="&#x686;" horiz-adv-x="490" arabic-form="medial" 
d="M402 -140c0 -19.333 -7 -36 -21 -50s-30.667 -21 -50 -21s-35.833 7 -49.5 21s-20.5 30.667 -20.5 50c0 18.667 7 35 21 49s30.333 21 49 21c19.333 0 36 -6.83301 50 -20.5s21 -30.167 21 -49.5zM230 -140c0 -19.333 -7 -36 -21 -50s-30.667 -21 -50 -21
s-35.833 7 -49.5 21s-20.5 30.667 -20.5 50c0 18.667 7 35 21 49s30.333 21 49 21c19.333 0 36 -6.83301 50 -20.5s21 -30.167 21 -49.5zM314 -277c0 -19.333 -7 -36 -21 -50s-30.667 -21 -50 -21s-35.833 7 -49.5 21s-20.5 30.667 -20.5 50c0 18.667 7 35 21 49
s30.333 21 49 21c19.333 0 36 -6.83301 50 -20.5s21 -30.167 21 -49.5zM500 0h-10.001c-46 0 -86.667 15 -122 45c-31.333 -30 -70.666 -45 -117.999 -45h-260v147h253c32.667 0 49 16 49 48v471c0 37.333 -16 56 -48 56c-31.333 0 -47 -18.667 -47 -56v-471h-151v486
c0 55.333 19 102 57 140s84.667 57 140 57c53.333 0 100 -18.667 140 -56s60 -82.333 60 -135v-492c0 -32 15.667 -48 47 -48h10v-147z" />
    <glyph glyph-name="uFB8B" unicode="&#x698;" horiz-adv-x="405" arabic-form="final" 
d="M302 1156c0 -19.333 -7 -35.833 -21 -49.5s-30.667 -20.5 -50 -20.5c-18.667 0 -35 7 -49 21s-21 30.333 -21 49c0 19.333 6.83301 36 20.5 50s30.167 21 49.5 21s36 -7 50 -21s21 -30.667 21 -50zM391 1015c0 -19.333 -7 -35.833 -21 -49.5s-30.667 -20.5 -50 -20.5
c-18.667 0 -35 7 -49 21s-21 30.333 -21 49c0 19.333 6.83301 36 20.5 50s30.167 21 49.5 21s36 -7 50 -21s21 -30.667 21 -50zM219 1015c0 -19.333 -7 -35.833 -21 -49.5s-30.667 -20.5 -50 -20.5c-18.667 0 -35 7 -49 21s-21 30.333 -21 49c0 19.333 6.83301 36 20.5 50
s30.167 21 49.5 21s36 -7 50 -21s21 -30.667 21 -50zM414 0l-60 -0.000976562c-30 0 -46 3.33301 -48 10v-31c0 -118.667 -42.667 -218 -128 -298l-113 99c60 56.667 90 133.334 90 230.001v872h151v-685c0 -33.333 16 -50 48 -50h60v-147zM5 -0.000976562z" />
    <glyph glyph-name="uFEDA" unicode="&#x6a9;" horiz-adv-x="1182" arabic-form="final" 
d="M1150 944h-536v147h536v-147zM1194 0h-98.999c-76 0 -139.667 13 -191 39c-54 -26 -117.333 -39 -190 -39h-421c-54 0 -100.5 19.167 -139.5 57.5s-58.5 84.166 -58.5 137.499v687h151v-687c0 -32 15.667 -48 47 -48h421c80 0 147.833 28.833 203.5 86.5
s83.5 126.834 83.5 207.501s-27.667 149.667 -83 207s-123.333 86 -204 86h-100v148h100c121.333 0 224.166 -43.167 308.499 -129.5s126.5 -190.166 126.5 -311.499c0 -108.667 -35.333 -204.334 -106 -287.001c20 -4.66699 37.333 -7 52 -7h99v-147z" />
    <glyph glyph-name="uFEDB" unicode="&#x6a9;" horiz-adv-x="576" arabic-form="initial" 
d="M576 945h-536v147h536v-147zM575 440c0 -121.333 -42.166 -225.001 -126.499 -311.001s-187.166 -129 -308.499 -129h-153v147h153c80 0 148 28.833 204 86.5s84 126.5 84 206.5c0 80.667 -27.833 149.667 -83.5 207s-123.834 86 -204.501 86h-100v148h100
c121.333 0 224.166 -43.167 308.499 -129.5s126.5 -190.166 126.5 -311.499z" />
    <glyph glyph-name="uFEDC" unicode="&#x6a9;" horiz-adv-x="610" arabic-form="medial" 
d="M575 945h-536v147h536v-147zM620 0l-98.999 -0.000976562c-76 0 -139.667 13 -191 39c-54 -26 -117.333 -39 -190 -39h-153v147h153c80 0 147.833 28.833 203.5 86.5s83.5 126.834 83.5 207.501s-27.667 149.667 -83 207s-123.333 86 -204 86h-100v148h100
c121.333 0 224.166 -43.167 308.499 -129.5s126.5 -190.166 126.5 -311.499c0 -108.667 -35.333 -204.334 -106 -287.001c20 -4.66699 37.333 -7 52 -7h99v-147z" />
    <glyph glyph-name="uFB93" unicode="&#x6af;" horiz-adv-x="1186" arabic-form="final" 
d="M1148 1150h-535v56h535v-56zM1150 944h-536v147h536v-147zM1194 0h-98.999c-76 0 -139.667 13 -191 39c-54 -26 -117.333 -39 -190 -39h-421c-54 0 -100.5 19.167 -139.5 57.5s-58.5 84.166 -58.5 137.499v687h151v-687c0 -32 15.667 -48 47 -48h421
c80 0 147.833 28.833 203.5 86.5s83.5 126.834 83.5 207.501s-27.667 149.667 -83 207s-123.333 86 -204 86h-100v148h100c121.333 0 224.166 -43.167 308.499 -129.5s126.5 -190.166 126.5 -311.499c0 -108.667 -35.333 -204.334 -106 -287.001
c20 -4.66699 37.333 -7 52 -7h99v-147z" />
    <glyph glyph-name="uFB94" unicode="&#x6af;" horiz-adv-x="578" arabic-form="initial" 
d="M578 1150h-535v56h535v-56zM576 945h-536v147h536v-147zM575 440c0 -121.333 -42.166 -225.001 -126.499 -311.001s-187.166 -129 -308.499 -129h-153v147h153c80 0 148 28.833 204 86.5s84 126.5 84 206.5c0 80.667 -27.833 149.667 -83.5 207s-123.834 86 -204.501 86
h-100v148h100c121.333 0 224.166 -43.167 308.499 -129.5s126.5 -190.166 126.5 -311.499z" />
    <glyph glyph-name="uFB95" unicode="&#x6af;" horiz-adv-x="611" arabic-form="medial" 
d="M578 1150h-535v56h535v-56zM575 945h-536v147h536v-147zM620 0l-98.999 -0.000976562c-76 0 -139.667 13 -191 39c-54 -26 -117.333 -39 -190 -39h-153v147h153c80 0 147.833 28.833 203.5 86.5s83.5 126.834 83.5 207.501s-27.667 149.667 -83 207s-123.333 86 -204 86
h-100v148h100c121.333 0 224.166 -43.167 308.499 -129.5s126.5 -190.166 126.5 -311.499c0 -108.667 -35.333 -204.334 -106 -287.001c20 -4.66699 37.333 -7 52 -7h99v-147z" />
    <glyph glyph-name="uFE94" unicode="&#x6c0;" horiz-adv-x="1015" arabic-form="final" 
d="M1023 0l-10.001 -0.000976562c-132.667 0 -199 76 -199 228v207c0 76 -28.167 143.667 -84.5 203s-122.166 89 -197.499 89c-81.333 0 -149.833 -28.667 -205.5 -86s-83.5 -126.666 -83.5 -207.999c0 -82 27.667 -150.167 83 -204.5s124 -81.5 206 -81.5h143v-147h-141
c-122 0 -225.667 42.667 -311 128s-128 189 -128 311c0 122.667 42.5 227 127.5 313s188.833 129 311.5 129c102.667 0 196 -34.333 280 -103v104h150v-668c0 -44.667 16.333 -67 49 -67h10v-147zM355.999 944.999l-181.999 0.000976562v59h78c-18.667 10 -28 33 -28 69
c0 37.333 12.667 68.166 38 92.499s56.666 36.5 93.999 36.5v-49c-50.667 0 -76 -25.333 -76 -76c0 -48.667 25.333 -73 76 -73v-59z" />
    <glyph glyph-name="uFEF2" unicode="&#x6cc;" horiz-adv-x="898" arabic-form="final" 
d="M909 0l-11 0.000976562c-87.333 -130.667 -210.333 -196 -369 -196c-121.333 0 -224 42.167 -308 126.5s-126 187.166 -126 308.499v643h151v-643c0 -80 27.833 -148.5 83.5 -205.5s123.5 -85.5 203.5 -85.5c64 0 118.667 18 164 54c-120 -4 -187.667 44.333 -203 145
h415v-147z" />
    <glyph glyph-name="uFEF3" unicode="&#x6cc;" horiz-adv-x="320" arabic-form="initial" 
d="M342 -140c0 -19.333 -7 -36 -21 -50s-30.667 -21 -50 -21s-35.833 7 -49.5 21s-20.5 30.667 -20.5 50c0 18.667 7 35 21 49s30.333 21 49 21c19.333 0 36 -6.83301 50 -20.5s21 -30.167 21 -49.5zM170 -140c0 -19.333 -7 -36 -21 -50s-30.667 -21 -50 -21
s-35.833 7 -49.5 21s-20.5 30.667 -20.5 50c0 18.667 7 35 21 49s30.333 21 49 21c19.333 0 36 -6.83301 50 -20.5s21 -30.167 21 -49.5zM256 195c0 -53.333 -19.5 -99.167 -58.5 -137.5s-85.5 -57.5 -139.5 -57.5h-68v147h68c31.333 0 47 16 47 48v687h151v-687z" />
    <glyph glyph-name="uFEF4" unicode="&#x6cc;" horiz-adv-x="373" arabic-form="medial" 
d="M342 -140c0 -19.333 -7 -36 -21 -50s-30.667 -21 -50 -21s-35.833 7 -49.5 21s-20.5 30.667 -20.5 50c0 18.667 7 35 21 49s30.333 21 49 21c19.333 0 36 -6.83301 50 -20.5s21 -30.167 21 -49.5zM170 -140c0 -19.333 -7 -36 -21 -50s-30.667 -21 -50 -21
s-35.833 7 -49.5 21s-20.5 30.667 -20.5 50c0 18.667 7 35 21 49s30.333 21 49 21c19.333 0 36 -6.83301 50 -20.5s21 -30.167 21 -49.5zM383 0h-74c-48.667 0 -90.667 15 -126 45c-30 -30 -69.667 -45 -119 -45h-74v147h74c31.333 0 47 16 47 48v687h151v-687
c0 -32 15.667 -48 47 -48h74v-147z" />
    <glyph glyph-name="Hcircumflex" unicode="&#x622;" horiz-adv-x="323" arabic-form="final" 
d="M333 0l-10 0.000976562c-54 0 -100.5 19.167 -139.5 57.5s-58.5 84.166 -58.5 137.499v951h151v-951c0 -32 15.667 -48 47 -48h10v-147zM362 1290c0 -26 -9.66699 -48.333 -29 -67s-42 -28 -68 -28c-25.333 0 -52.833 15 -82.5 45s-47.167 45 -52.5 45
c-32 0 -48 -15.667 -48 -47v-43h-51v43c0 26.667 9.83301 49.5 29.5 68.5s42.834 28.5 69.501 28.5c19.333 0 43.666 -15 72.999 -45s50 -45 62 -45c32 0 48 15 48 45v43h49v-43z" />
    <glyph glyph-name="uFE84" unicode="&#x623;" horiz-adv-x="296" arabic-form="final" 
d="M303 0l-10 0.000976562c-54 0 -100.5 19.167 -139.5 57.5s-58.5 84.166 -58.5 137.499v951h151v-951c0 -32 15.667 -48 47 -48h10v-147zM266 1193l-181.999 0.000976562v59h78c-18.667 10 -28 33 -28 69c0 37.333 12.667 68.166 38 92.499s56.666 36.5 93.999 36.5v-49
c-50.667 0 -76 -25.333 -76 -76c0 -48.667 25.333 -73 76 -73v-59z" />
    <glyph glyph-name="uFE86" unicode="&#x624;" horiz-adv-x="725" arabic-form="final" 
d="M742 0l-67 0.000976562v-20c0 -118.667 -42.667 -218 -128 -298l-113 99c60 56.667 90 129.667 90 219c-119.333 0 -220.666 43.333 -303.999 130s-125 190 -125 310c0 121.333 42.167 225.166 126.5 311.499s187.166 129.5 308.499 129.5h145v-734h67v-147zM523 147.001
v587.001c-72 0 -136.667 -30.833 -194 -92.5s-86 -128.834 -86 -201.501c0 -80 26.667 -148.333 80 -205c54 -58.667 120.667 -88 200 -88zM506 953.002l-181.999 0.000976562v59h78c-18.667 10 -28 33 -28 69c0 37.333 12.667 68.166 38 92.499s56.666 36.5 93.999 36.5
v-49c-50.667 0 -76 -25.333 -76 -76c0 -48.667 25.333 -73 76 -73v-59z" />
    <glyph glyph-name="uFE88" unicode="&#x625;" horiz-adv-x="293" arabic-form="final" 
d="M303 0l-10 0.000976562c-54 0 -100.5 19.167 -139.5 57.5s-58.5 84.166 -58.5 137.499v951h151v-951c0 -32 15.667 -48 47 -48h10v-147zM266 -336.999l-181.999 0.000976562v59h78c-18.667 10 -28 33 -28 69c0 37.333 12.667 68.166 38 92.499s56.666 36.5 93.999 36.5
v-49c-50.667 0 -76 -25.333 -76 -76c0 -48.667 25.333 -73 76 -73v-59z" />
    <glyph glyph-name="uFE8A" unicode="&#x626;" horiz-adv-x="898" arabic-form="final" 
d="M909 0l-11 0.000976562c-87.333 -130.667 -210.333 -196 -369 -196c-121.333 0 -224 42.167 -308 126.5s-126 187.166 -126 308.499v643h151v-643c0 -80 27.833 -148.5 83.5 -205.5s123.5 -85.5 203.5 -85.5c64 0 118.667 18 164 54c-120 -4 -187.667 44.333 -203 145
h415v-147zM266 963.001l-181.999 0.000976562v59h78c-18.667 10 -28 33 -28 69c0 37.333 12.667 68.166 38 92.499s56.666 36.5 93.999 36.5v-49c-50.667 0 -76 -25.333 -76 -76c0 -48.667 25.333 -73 76 -73v-59z" />
    <glyph glyph-name="uFE8B" unicode="&#x626;" horiz-adv-x="200" arabic-form="initial" 
d="M198 195c0 -53.333 -19.5 -99.167 -58.5 -137.5s-85.5 -57.5 -139.5 -57.5h-10v147h10c31.333 0 47 16 47 48v687h151v-687zM216 952.999l-181.999 0.000976562v59h78c-18.667 10 -28 33 -28 69c0 37.333 12.667 68.166 38 92.499s56.666 36.5 93.999 36.5v-49
c-50.667 0 -76 -25.333 -76 -76c0 -48.667 25.333 -73 76 -73v-59z" />
    <glyph glyph-name="uFE8C" unicode="&#x626;" horiz-adv-x="245" arabic-form="medial" 
d="M255 0h-10c-48.667 0 -90.667 15 -126 45c-30 -30 -69.667 -45 -119 -45h-10v147h10c31.333 0 47 16 47 48v687h151v-687c0 -32 15.667 -48 47 -48h10v-147zM216 953l-181.999 0.000976562v59h78c-18.667 10 -28 33 -28 69c0 37.333 12.667 68.166 38 92.499
s56.666 36.5 93.999 36.5v-49c-50.667 0 -76 -25.333 -76 -76c0 -48.667 25.333 -73 76 -73v-59z" />
    <glyph glyph-name="uFE8E" unicode="&#x627;" horiz-adv-x="293" arabic-form="final" 
d="M303 0l-10 0.000976562c-54 0 -100.5 19.167 -139.5 57.5s-58.5 84.166 -58.5 137.499v951h151v-951c0 -32 15.667 -48 47 -48h10v-147z" />
    <glyph glyph-name="uFE90" unicode="&#x628;" horiz-adv-x="1196" arabic-form="final" 
d="M1207 0l-10 0.000976562c-48.667 0 -90.667 15 -126 45c-30 -30 -69.667 -45 -119 -45h-659c-54 0 -100.5 19.167 -139.5 57.5s-58.5 84.166 -58.5 137.499v687h151v-687c0 -32 15.667 -48 47 -48h659c31.333 0 47 16 47 48v687h151v-687c0 -32 15.667 -48 47 -48h10
v-147zM671 -148.999c0 -21.333 -7.33301 -39.6699 -22 -55.0029s-32.667 -23 -54 -23c-20.667 0 -38.167 7.83301 -52.5 23.5s-21.5 33.834 -21.5 54.501s7.16699 38.834 21.5 54.501s31.833 23.5 52.5 23.5c21.333 0 39.333 -7.66699 54 -23s22 -33.666 22 -54.999z" />
    <glyph glyph-name="uFE91" unicode="&#x628;" horiz-adv-x="198" arabic-form="initial" 
d="M198 195c0 -53.333 -19.5 -99.167 -58.5 -137.5s-85.5 -57.5 -139.5 -57.5h-10v147h10c31.333 0 47 16 47 48v687h151v-687zM171 -149.001c0 -21.333 -7.33301 -39.6699 -22 -55.0029s-32.667 -23 -54 -23c-20.667 0 -38.167 7.83301 -52.5 23.5
s-21.5 33.834 -21.5 54.501s7.16699 38.834 21.5 54.501s31.833 23.5 52.5 23.5c21.333 0 39.333 -7.66699 54 -23s22 -33.666 22 -54.999z" />
    <glyph glyph-name="uFE92" unicode="&#x628;" horiz-adv-x="245" arabic-form="medial" 
d="M255 0h-10c-48.667 0 -90.667 15 -126 45c-30 -30 -69.667 -45 -119 -45h-10v147h10c31.333 0 47 16 47 48v687h151v-687c0 -32 15.667 -48 47 -48h10v-147zM191 -149c0 -21.333 -7.33301 -39.6699 -22 -55.0029s-32.667 -23 -54 -23
c-20.667 0 -38.167 7.83301 -52.5 23.5s-21.5 33.834 -21.5 54.501s7.16699 38.834 21.5 54.501s31.833 23.5 52.5 23.5c21.333 0 39.333 -7.66699 54 -23s22 -33.666 22 -54.999z" />
    <glyph glyph-name="uFE96" unicode="&#x62a;" horiz-adv-x="1256" arabic-form="final" 
d="M751 1016c0 -19.333 -7 -36 -21 -50s-30.667 -21 -50 -21s-35.833 7 -49.5 21s-20.5 30.667 -20.5 50s6.83301 35.833 20.5 49.5s30.167 20.5 49.5 20.5s36 -6.83301 50 -20.5s21 -30.167 21 -49.5zM579 1016c0 -19.333 -7 -36 -21 -50s-30.667 -21 -50 -21
s-35.833 7 -49.5 21s-20.5 30.667 -20.5 50s6.83301 35.833 20.5 49.5s30.167 20.5 49.5 20.5s36 -6.83301 50 -20.5s21 -30.167 21 -49.5zM1267 0l-70 0.000976562c-48.667 0 -90.667 15 -126 45c-30 -30 -69.667 -45 -119 -45h-659c-54 0 -100.5 19.167 -139.5 57.5
s-58.5 84.166 -58.5 137.499v687h151v-687c0 -32 15.667 -48 47 -48h659c31.333 0 47 16 47 48v687h151v-687c0 -32 15.667 -48 47 -48h70v-147z" />
    <glyph glyph-name="uFE97" unicode="&#x62a;" horiz-adv-x="298" arabic-form="initial" 
d="M338 1017c0 -19.333 -7 -36 -21 -50s-30.667 -21 -50 -21s-35.833 7 -49.5 21s-20.5 30.667 -20.5 50s6.83301 35.833 20.5 49.5s30.167 20.5 49.5 20.5s36 -6.83301 50 -20.5s21 -30.167 21 -49.5zM166 1017c0 -19.333 -7 -36 -21 -50s-30.667 -21 -50 -21
s-35.833 7 -49.5 21s-20.5 30.667 -20.5 50s6.83301 35.833 20.5 49.5s30.167 20.5 49.5 20.5s36 -6.83301 50 -20.5s21 -30.167 21 -49.5zM256 195c0 -53.333 -19.5 -99.167 -58.5 -137.5s-85.5 -57.5 -139.5 -57.5h-68v147h68c31.333 0 47 16 47 48v687h151v-687z" />
    <glyph glyph-name="uFE98" unicode="&#x62a;" horiz-adv-x="364" arabic-form="medial" 
d="M338 1017c0 -19.333 -7 -36 -21 -50s-30.667 -21 -50 -21s-35.833 7 -49.5 21s-20.5 30.667 -20.5 50s6.83301 35.833 20.5 49.5s30.167 20.5 49.5 20.5s36 -6.83301 50 -20.5s21 -30.167 21 -49.5zM166 1017c0 -19.333 -7 -36 -21 -50s-30.667 -21 -50 -21
s-35.833 7 -49.5 21s-20.5 30.667 -20.5 50s6.83301 35.833 20.5 49.5s30.167 20.5 49.5 20.5s36 -6.83301 50 -20.5s21 -30.167 21 -49.5zM383 0h-74c-48.667 0 -90.667 15 -126 45c-30 -30 -69.667 -45 -119 -45h-74v147h74c31.333 0 47 16 47 48v687h151v-687
c0 -32 15.667 -48 47 -48h74v-147z" />
    <glyph glyph-name="uFE9A" unicode="&#x62b;" horiz-adv-x="1256" arabic-form="final" 
d="M662 1156c0 -19.333 -7 -35.833 -21 -49.5s-30.667 -20.5 -50 -20.5c-18.667 0 -35 7 -49 21s-21 30.333 -21 49c0 19.333 6.83301 36 20.5 50s30.167 21 49.5 21s36 -7 50 -21s21 -30.667 21 -50zM751 1015c0 -19.333 -7 -35.833 -21 -49.5s-30.667 -20.5 -50 -20.5
c-18.667 0 -35 7 -49 21s-21 30.333 -21 49c0 19.333 6.83301 36 20.5 50s30.167 21 49.5 21s36 -7 50 -21s21 -30.667 21 -50zM579 1015c0 -19.333 -7 -35.833 -21 -49.5s-30.667 -20.5 -50 -20.5c-18.667 0 -35 7 -49 21s-21 30.333 -21 49c0 19.333 6.83301 36 20.5 50
s30.167 21 49.5 21s36 -7 50 -21s21 -30.667 21 -50zM1267 0l-70 0.000976562c-48.667 0 -90.667 15 -126 45c-30 -30 -69.667 -45 -119 -45h-659c-54 0 -100.5 19.167 -139.5 57.5s-58.5 84.166 -58.5 137.499v687h151v-687c0 -32 15.667 -48 47 -48h659
c31.333 0 47 16 47 48v687h151v-687c0 -32 15.667 -48 47 -48h70v-147z" />
    <glyph glyph-name="uFE9B" unicode="&#x62b;" horiz-adv-x="296" arabic-form="initial" 
d="M243 1156c0 -19.333 -7 -35.833 -21 -49.5s-30.667 -20.5 -50 -20.5c-18.667 0 -35 7 -49 21s-21 30.333 -21 49c0 19.333 6.83301 36 20.5 50s30.167 21 49.5 21s36 -7 50 -21s21 -30.667 21 -50zM332 1015c0 -19.333 -7 -35.833 -21 -49.5s-30.667 -20.5 -50 -20.5
c-18.667 0 -35 7 -49 21s-21 30.333 -21 49c0 19.333 6.83301 36 20.5 50s30.167 21 49.5 21s36 -7 50 -21s21 -30.667 21 -50zM160 1015c0 -19.333 -7 -35.833 -21 -49.5s-30.667 -20.5 -50 -20.5c-18.667 0 -35 7 -49 21s-21 30.333 -21 49c0 19.333 6.83301 36 20.5 50
s30.167 21 49.5 21s36 -7 50 -21s21 -30.667 21 -50zM256 195c0 -53.333 -19.5 -99.167 -58.5 -137.5s-85.5 -57.5 -139.5 -57.5h-68v147h68c31.333 0 47 16 47 48v687h151v-687z" />
    <glyph glyph-name="uFE9C" unicode="&#x62b;" horiz-adv-x="364" arabic-form="medial" 
d="M243 1156c0 -19.333 -7 -35.833 -21 -49.5s-30.667 -20.5 -50 -20.5c-18.667 0 -35 7 -49 21s-21 30.333 -21 49c0 19.333 6.83301 36 20.5 50s30.167 21 49.5 21s36 -7 50 -21s21 -30.667 21 -50zM332 1015c0 -19.333 -7 -35.833 -21 -49.5s-30.667 -20.5 -50 -20.5
c-18.667 0 -35 7 -49 21s-21 30.333 -21 49c0 19.333 6.83301 36 20.5 50s30.167 21 49.5 21s36 -7 50 -21s21 -30.667 21 -50zM160 1015c0 -19.333 -7 -35.833 -21 -49.5s-30.667 -20.5 -50 -20.5c-18.667 0 -35 7 -49 21s-21 30.333 -21 49c0 19.333 6.83301 36 20.5 50
s30.167 21 49.5 21s36 -7 50 -21s21 -30.667 21 -50zM383 0h-74c-48.667 0 -90.667 15 -126 45c-30 -30 -69.667 -45 -119 -45h-74v147h74c31.333 0 47 16 47 48v687h151v-687c0 -32 15.667 -48 47 -48h74v-147z" />
    <glyph glyph-name="uFE9E" unicode="&#x62c;" horiz-adv-x="635" arabic-form="final" 
d="M645 0l-10.001 -0.000976562c-46 0 -86.667 15 -122 45c-35.333 -30 -74.666 -45 -117.999 -45h-55c-26.667 0 -49 -9.5 -67 -28.5s-27 -41.833 -27 -68.5s9.16699 -49.5 27.5 -68.5s40.833 -28.5 67.5 -28.5h54v-151h-56c-68 0 -125.667 24 -173 72s-71 106 -71 174
c0 68.667 23.667 126.834 71 174.501s105.333 71.5 174 71.5h48c32.667 0 49 16 49 48v471c0 37.333 -16 56 -48 56c-31.333 0 -47 -18.667 -47 -56v-471h-151v486c0 55.333 19 102 57 140s84.667 57 140 57c53.333 0 100 -18.667 140 -56s60 -82.333 60 -135v-492
c0 -32 15.667 -48 47 -48h10v-147zM583.999 -139.001c0 -19.333 -7 -36 -21 -50s-30.667 -21 -50 -21s-35.833 7 -49.5 21s-20.5 30.667 -20.5 50c0 18.667 7 35 21 49s30.333 21 49 21c19.333 0 36 -6.83301 50 -20.5s21 -30.167 21 -49.5z" />
    <glyph glyph-name="uFE9F" unicode="&#x62c;" horiz-adv-x="444" arabic-form="initial" 
d="M443 199c0 -54 -18.833 -100.667 -56.5 -140s-83.167 -59 -136.5 -59h-260v147h253c32.667 0 49 16 49 48v471c0 37.333 -16 56 -48 56c-31.333 0 -47 -18.667 -47 -56v-471h-151v486c0 55.333 19 102 57 140s84.667 57 140 57c53.333 0 100 -18.667 140 -56
s60 -82.333 60 -135v-488zM313 -138c0 -19.333 -7 -36 -21 -50s-30.667 -21 -50 -21s-35.833 7 -49.5 21s-20.5 30.667 -20.5 50c0 18.667 7 35 21 49s30.333 21 49 21c19.333 0 36 -6.83301 50 -20.5s21 -30.167 21 -49.5z" />
    <glyph glyph-name="uFEA0" unicode="&#x62c;" horiz-adv-x="490" arabic-form="medial" 
d="M313 -138c0 -19.333 -7 -36 -21 -50s-30.667 -21 -50 -21s-35.833 7 -49.5 21s-20.5 30.667 -20.5 50c0 18.667 7 35 21 49s30.333 21 49 21c19.333 0 36 -6.83301 50 -20.5s21 -30.167 21 -49.5zM500 0h-10.001c-46 0 -86.667 15 -122 45
c-31.333 -30 -70.666 -45 -117.999 -45h-260v147h253c32.667 0 49 16 49 48v471c0 37.333 -16 56 -48 56c-31.333 0 -47 -18.667 -47 -56v-471h-151v486c0 55.333 19 102 57 140s84.667 57 140 57c53.333 0 100 -18.667 140 -56s60 -82.333 60 -135v-492
c0 -32 15.667 -48 47 -48h10v-147z" />
    <glyph glyph-name="uFEA2" unicode="&#x62d;" horiz-adv-x="635" arabic-form="final" 
d="M645 0l-10.001 -0.000976562c-46 0 -86.667 15 -122 45c-35.333 -30 -74.666 -45 -117.999 -45h-55c-26.667 0 -49 -9.5 -67 -28.5s-27 -41.833 -27 -68.5s9.16699 -49.5 27.5 -68.5s40.833 -28.5 67.5 -28.5h54v-151h-56c-68 0 -125.667 24 -173 72s-71 106 -71 174
c0 68.667 23.667 126.834 71 174.501s105.333 71.5 174 71.5h48c32.667 0 49 16 49 48v471c0 37.333 -16 56 -48 56c-31.333 0 -47 -18.667 -47 -56v-471h-151v486c0 55.333 19 102 57 140s84.667 57 140 57c53.333 0 100 -18.667 140 -56s60 -82.333 60 -135v-492
c0 -32 15.667 -48 47 -48h10v-147z" />
    <glyph glyph-name="uFEA3" unicode="&#x62d;" horiz-adv-x="443" arabic-form="initial" 
d="M443 199c0 -54 -18.833 -100.667 -56.5 -140s-83.167 -59 -136.5 -59h-260v147h253c32.667 0 49 16 49 48v471c0 37.333 -16 56 -48 56c-31.333 0 -47 -18.667 -47 -56v-471h-151v486c0 55.333 19 102 57 140s84.667 57 140 57c53.333 0 100 -18.667 140 -56
s60 -82.333 60 -135v-488z" />
    <glyph glyph-name="uFEA4" unicode="&#x62d;" horiz-adv-x="490" arabic-form="medial" 
d="M500 0h-10.001c-46 0 -86.667 15 -122 45c-31.333 -30 -70.666 -45 -117.999 -45h-260v147h253c32.667 0 49 16 49 48v471c0 37.333 -16 56 -48 56c-31.333 0 -47 -18.667 -47 -56v-471h-151v486c0 55.333 19 102 57 140s84.667 57 140 57c53.333 0 100 -18.667 140 -56
s60 -82.333 60 -135v-492c0 -32 15.667 -48 47 -48h10v-147z" />
    <glyph glyph-name="uFEA6" unicode="&#x62e;" horiz-adv-x="635" arabic-form="final" 
d="M645 0l-10.001 -0.000976562c-46 0 -86.667 15 -122 45c-35.333 -30 -74.666 -45 -117.999 -45h-55c-26.667 0 -49 -9.5 -67 -28.5s-27 -41.833 -27 -68.5s9.16699 -49.5 27.5 -68.5s40.833 -28.5 67.5 -28.5h54v-151h-56c-68 0 -125.667 24 -173 72s-71 106 -71 174
c0 68.667 23.667 126.834 71 174.501s105.333 71.5 174 71.5h48c32.667 0 49 16 49 48v471c0 37.333 -16 56 -48 56c-31.333 0 -47 -18.667 -47 -56v-471h-151v486c0 55.333 19 102 57 140s84.667 57 140 57c53.333 0 100 -18.667 140 -56s60 -82.333 60 -135v-492
c0 -32 15.667 -48 47 -48h10v-147zM458.999 1016c0 -19.333 -7 -35.833 -21 -49.5s-30.667 -20.5 -50 -20.5c-18.667 0 -35 7 -49 21s-21 30.333 -21 49c0 19.333 6.83301 36 20.5 50s30.167 21 49.5 21s36 -7 50 -21s21 -30.667 21 -50z" />
    <glyph glyph-name="uFEA7" unicode="&#x62e;" horiz-adv-x="444" arabic-form="initial" 
d="M443 199c0 -54 -18.833 -100.667 -56.5 -140s-83.167 -59 -136.5 -59h-260v147h253c32.667 0 49 16 49 48v471c0 37.333 -16 56 -48 56c-31.333 0 -47 -18.667 -47 -56v-471h-151v486c0 55.333 19 102 57 140s84.667 57 140 57c53.333 0 100 -18.667 140 -56
s60 -82.333 60 -135v-488zM317 1016c0 -19.333 -7 -35.833 -21 -49.5s-30.667 -20.5 -50 -20.5c-18.667 0 -35 7 -49 21s-21 30.333 -21 49c0 19.333 6.83301 36 20.5 50s30.167 21 49.5 21s36 -7 50 -21s21 -30.667 21 -50z" />
    <glyph glyph-name="uFEA8" unicode="&#x62e;" horiz-adv-x="490" arabic-form="medial" 
d="M317 1016c0 -19.333 -7 -35.833 -21 -49.5s-30.667 -20.5 -50 -20.5c-18.667 0 -35 7 -49 21s-21 30.333 -21 49c0 19.333 6.83301 36 20.5 50s30.167 21 49.5 21s36 -7 50 -21s21 -30.667 21 -50zM500 0h-10.001c-46 0 -86.667 15 -122 45
c-31.333 -30 -70.666 -45 -117.999 -45h-260v147h253c32.667 0 49 16 49 48v471c0 37.333 -16 56 -48 56c-31.333 0 -47 -18.667 -47 -56v-471h-151v486c0 55.333 19 102 57 140s84.667 57 140 57c53.333 0 100 -18.667 140 -56s60 -82.333 60 -135v-492
c0 -32 15.667 -48 47 -48h10v-147z" />
    <glyph glyph-name="uFEAA" unicode="&#x62f;" horiz-adv-x="572" arabic-form="final" 
d="M582 0l-9.99805 -0.000976562c-46 0 -86.667 15 -122 45c-36.667 -30 -76.334 -45 -119.001 -45h-236v147h226c34.667 0 52 17.667 52 53v240c0 80.667 -26.333 149.834 -79 207.501s-119 86.5 -199 86.5v147c121.333 0 223.666 -43.333 306.999 -130
c81.333 -85.333 122 -189 122 -311v-243c0 -33.333 16 -50 48 -50h10v-147z" />
    <glyph glyph-name="uFEAC" unicode="&#x630;" horiz-adv-x="572" arabic-form="final" 
d="M582 0l-9.99805 -0.000976562c-46 0 -86.667 15 -122 45c-36.667 -30 -76.334 -45 -119.001 -45h-236v147h226c34.667 0 52 17.667 52 53v240c0 80.667 -26.333 149.834 -79 207.501s-119 86.5 -199 86.5v147c121.333 0 223.666 -43.333 306.999 -130
c81.333 -85.333 122 -189 122 -311v-243c0 -33.333 16 -50 48 -50h10v-147zM236.002 1015c0 -19.333 -7 -35.833 -21 -49.5s-30.667 -20.5 -50 -20.5c-18.667 0 -35 7 -49 21s-21 30.333 -21 49c0 19.333 6.83301 36 20.5 50s30.167 21 49.5 21s36 -7 50 -21
s21 -30.667 21 -50z" />
    <glyph glyph-name="uFEAE" unicode="&#x631;" horiz-adv-x="354" arabic-form="final" 
d="M364 0l-10 -0.000976562c-30 0 -46 3.33301 -48 10v-31c0 -118.667 -42.667 -218 -128 -298l-113 99c60 56.667 90 133.334 90 230.001v872h151v-685c0 -33.333 16 -50 48 -50h10v-147z" />
    <glyph glyph-name="uFEB0" unicode="&#x632;" horiz-adv-x="354" arabic-form="final" 
d="M364 0l-10 -0.000976562c-30 0 -46 3.33301 -48 10v-31c0 -118.667 -42.667 -218 -128 -298l-113 99c60 56.667 90 133.334 90 230.001v872h151v-685c0 -33.333 16 -50 48 -50h10v-147zM301 1014c0 -19.333 -7 -35.833 -21 -49.5s-30.667 -20.5 -50 -20.5
c-18.667 0 -35 7 -49 21s-21 30.333 -21 49c0 19.333 6.83301 36 20.5 50s30.167 21 49.5 21s36 -7 50 -21s21 -30.667 21 -50z" />
    <glyph glyph-name="uFEB2" unicode="&#x633;" horiz-adv-x="1511" arabic-form="final" 
d="M1521 0l-10.001 0.000976562c-46 0 -86.667 15 -122 45c-35.333 -30 -78.333 -45 -129 -45c-57.333 0 -97 8.66699 -119 26c-28.667 -17.333 -67.667 -26 -117 -26c-53.333 0 -92 9.33301 -116 28c-86 -150 -211 -225 -375 -225c-121.333 0 -224.666 42.667 -309.999 128
s-128 188.666 -128 309.999v641h151v-641c0 -80 27.833 -147.833 83.5 -203.5s123.5 -83.5 203.5 -83.5c85.333 0 155 30.667 209 92c52.667 58.667 79 131 79 217v619h151v-655c0 -53.333 15.667 -80 47 -80c22.667 0 37 7 43 21c3.33301 8 5 27.667 5 59v655h151v-655
c0 -30 2 -49.667 6 -59c6 -14 19.333 -21 40 -21c24.667 0 40 8 46 24c2 5.33301 3 24.333 3 57v654h151l-1 -685c0 -33.333 16 -50 48 -50h10v-147z" />
    <glyph glyph-name="uFEB3" unicode="&#x633;" horiz-adv-x="691" arabic-form="initial" 
d="M691 239c0 -66.667 -16.999 -122 -50.999 -166c-37.333 -48.667 -88.333 -73 -153 -73c-57.333 0 -97 8.66699 -119 26c-28.667 -17.333 -69.334 -26 -122.001 -26c-46.667 0 -87.667 15 -123 45c-35.333 -30 -76.333 -45 -123 -45h-10v147h10c32 0 48 16.667 48 50v685
h151v-654c0 -54 15.333 -81 46 -81c32.667 0 49 26.667 49 80v655h151v-655c0 -53.333 15.333 -80 46 -80c32.667 0 49 27 49 81v654h151v-643z" />
    <glyph glyph-name="uFEB4" unicode="&#x633;" horiz-adv-x="738" arabic-form="medial" 
d="M748 0h-9.99902c-46 0 -86.667 15 -122 45c-35.333 -30 -78.333 -45 -129 -45c-57.333 0 -97 8.66699 -119 26c-28.667 -17.333 -69.334 -26 -122.001 -26c-46.667 0 -87.667 15 -123 45c-35.333 -30 -76.333 -45 -123 -45h-10v147h10c32 0 48 16.667 48 50v685h151v-654
c0 -54 15.333 -81 46 -81c32.667 0 49 26.667 49 80v655h151v-655c0 -30 2 -49.667 6 -59c6 -14 19.333 -21 40 -21c24.667 0 40 8 46 24c2 5.33301 3 24.333 3 57v654h151l-1 -685c0 -33.333 16 -50 48 -50h10v-147z" />
    <glyph glyph-name="uFEB6" unicode="&#x634;" horiz-adv-x="1511" arabic-form="final" 
d="M1214 1156c0 -19.333 -7 -35.833 -21 -49.5s-30.667 -20.5 -50 -20.5c-18.667 0 -35 7 -49 21s-21 30.333 -21 49c0 19.333 6.83301 36 20.5 50s30.167 21 49.5 21s36 -7 50 -21s21 -30.667 21 -50zM1303 1015c0 -19.333 -7 -35.833 -21 -49.5s-30.667 -20.5 -50 -20.5
c-18.667 0 -35 7 -49 21s-21 30.333 -21 49c0 19.333 6.83301 36 20.5 50s30.167 21 49.5 21s36 -7 50 -21s21 -30.667 21 -50zM1131 1015c0 -19.333 -7 -35.833 -21 -49.5s-30.667 -20.5 -50 -20.5c-18.667 0 -35 7 -49 21s-21 30.333 -21 49c0 19.333 6.83301 36 20.5 50
s30.167 21 49.5 21s36 -7 50 -21s21 -30.667 21 -50zM1521 0l-10.001 0.000976562c-46 0 -86.667 15 -122 45c-35.333 -30 -78.333 -45 -129 -45c-57.333 0 -97 8.66699 -119 26c-28.667 -17.333 -67.667 -26 -117 -26c-53.333 0 -92 9.33301 -116 28
c-86 -150 -211 -225 -375 -225c-121.333 0 -224.666 42.667 -309.999 128s-128 188.666 -128 309.999v641h151v-641c0 -80 27.833 -147.833 83.5 -203.5s123.5 -83.5 203.5 -83.5c85.333 0 155 30.667 209 92c52.667 58.667 79 131 79 217v619h151v-655
c0 -53.333 15.667 -80 47 -80c22.667 0 37 7 43 21c3.33301 8 5 27.667 5 59v655h151v-655c0 -30 2 -49.667 6 -59c6 -14 19.333 -21 40 -21c24.667 0 40 8 46 24c2 5.33301 3 24.333 3 57v654h151l-1 -685c0 -33.333 16 -50 48 -50h10v-147z" />
    <glyph glyph-name="uFEB7" unicode="&#x634;" horiz-adv-x="691" arabic-form="initial" 
d="M691 239c0 -66.667 -16.999 -122 -50.999 -166c-37.333 -48.667 -88.333 -73 -153 -73c-57.333 0 -97 8.66699 -119 26c-28.667 -17.333 -69.334 -26 -122.001 -26c-46.667 0 -87.667 15 -123 45c-35.333 -30 -76.333 -45 -123 -45h-10v147h10c32 0 48 16.667 48 50v685
h151v-654c0 -54 15.333 -81 46 -81c32.667 0 49 26.667 49 80v655h151v-655c0 -53.333 15.333 -80 46 -80c32.667 0 49 27 49 81v654h151v-643zM425.001 1156c0 -19.333 -7 -35.833 -21 -49.5s-30.667 -20.5 -50 -20.5c-18.667 0 -35 7 -49 21s-21 30.333 -21 49
c0 19.333 6.83301 36 20.5 50s30.167 21 49.5 21s36 -7 50 -21s21 -30.667 21 -50zM514.001 1015c0 -19.333 -7 -35.833 -21 -49.5s-30.667 -20.5 -50 -20.5c-18.667 0 -35 7 -49 21s-21 30.333 -21 49c0 19.333 6.83301 36 20.5 50s30.167 21 49.5 21s36 -7 50 -21
s21 -30.667 21 -50zM342.001 1015c0 -19.333 -7 -35.833 -21 -49.5s-30.667 -20.5 -50 -20.5c-18.667 0 -35 7 -49 21s-21 30.333 -21 49c0 19.333 6.83301 36 20.5 50s30.167 21 49.5 21s36 -7 50 -21s21 -30.667 21 -50z" />
    <glyph glyph-name="uFEB8" unicode="&#x634;" horiz-adv-x="738" arabic-form="medial" 
d="M425 1156c0 -19.333 -7 -35.833 -21 -49.5s-30.667 -20.5 -50 -20.5c-18.667 0 -35 7 -49 21s-21 30.333 -21 49c0 19.333 6.83301 36 20.5 50s30.167 21 49.5 21s36 -7 50 -21s21 -30.667 21 -50zM514 1015c0 -19.333 -7 -35.833 -21 -49.5s-30.667 -20.5 -50 -20.5
c-18.667 0 -35 7 -49 21s-21 30.333 -21 49c0 19.333 6.83301 36 20.5 50s30.167 21 49.5 21s36 -7 50 -21s21 -30.667 21 -50zM342 1015c0 -19.333 -7 -35.833 -21 -49.5s-30.667 -20.5 -50 -20.5c-18.667 0 -35 7 -49 21s-21 30.333 -21 49c0 19.333 6.83301 36 20.5 50
s30.167 21 49.5 21s36 -7 50 -21s21 -30.667 21 -50zM748 0h-9.99902c-46 0 -86.667 15 -122 45c-35.333 -30 -78.333 -45 -129 -45c-57.333 0 -97 8.66699 -119 26c-28.667 -17.333 -69.334 -26 -122.001 -26c-46.667 0 -87.667 15 -123 45
c-35.333 -30 -76.333 -45 -123 -45h-10v147h10c32 0 48 16.667 48 50v685h151v-654c0 -54 15.333 -81 46 -81c32.667 0 49 26.667 49 80v655h151v-655c0 -30 2 -49.667 6 -59c6 -14 19.333 -21 40 -21c24.667 0 40 8 46 24c2 5.33301 3 24.333 3 57v654h151l-1 -685
c0 -33.333 16 -50 48 -50h10v-147z" />
    <glyph glyph-name="uFEBA" unicode="&#x635;" horiz-adv-x="1742" arabic-form="final" 
d="M1752 0l-10.001 0.000976562c-46 0 -86.667 15 -122 45c-36 -30 -79 -45 -129 -45h-470c-55.333 0 -93 9.33301 -113 28c-86 -150 -211 -225 -375 -225c-121.333 0 -224.666 42.667 -309.999 128s-128 188.666 -128 309.999v641h151v-641
c0 -80 27.833 -147.833 83.5 -203.5s123.5 -83.5 203.5 -83.5c85.333 0 155 30.667 209 92c52.667 58.667 79 131 79 217v619h151v-354c103.333 236 220 354 350 354c120 0 213.667 -43.333 281 -130c60.667 -78.667 91 -179.667 91 -303v-252c0 -33.333 16 -50 48 -50h10
v-147zM1543 210.001v239c0 80 -18 145.667 -54 197c-41.333 59.333 -100.333 89 -177 89c-59.333 0 -127.333 -68.333 -204 -205c-48 -86 -92 -182.333 -132 -289c-4.66699 -12.667 -7 -26 -7 -40c0 -36 17 -54 51 -54h464c39.333 0 59 21 59 63z" />
    <glyph glyph-name="uFEBB" unicode="&#x635;" horiz-adv-x="918" arabic-form="initial" 
d="M918 197c0 -57.333 -19.501 -104.5 -58.501 -141.5s-87.167 -55.5 -144.5 -55.5h-522c-28.667 0 -53.667 9 -75 27c-17.333 -18 -36.666 -27 -57.999 -27h-70v147h11c29.333 0 44 19.667 44 59v676h151v-354c103.333 236 220 354 350 354c120 0 213.667 -43.333 281 -130
c60.667 -78.667 91 -179.667 91 -303v-252zM766.999 210v239c0 80 -18 145.667 -54 197c-41.333 59.333 -100.333 89 -177 89c-59.333 0 -127.333 -68.333 -204 -205c-48 -86 -92 -182.333 -132 -289c-4.66699 -12.667 -7 -26 -7 -40c0 -36 17 -54 51 -54h464
c39.333 0 59 21 59 63z" />
    <glyph glyph-name="uFEBC" unicode="&#x635;" horiz-adv-x="966" arabic-form="medial" 
d="M976 0h-10.001c-46 0 -86.667 15 -122 45c-36 -30 -79 -45 -129 -45h-522c-28.667 0 -53.667 9 -75 27c-17.333 -18 -36.666 -27 -57.999 -27h-70v147h11c29.333 0 44 19.667 44 59v676h151v-354c103.333 236 220 354 350 354c120 0 213.667 -43.333 281 -130
c60.667 -78.667 91 -179.667 91 -303v-252c0 -33.333 16 -50 48 -50h10v-147zM766.999 210v239c0 80 -18 145.667 -54 197c-41.333 59.333 -100.333 89 -177 89c-59.333 0 -127.333 -68.333 -204 -205c-48 -86 -92 -182.333 -132 -289c-4.66699 -12.667 -7 -26 -7 -40
c0 -36 17 -54 51 -54h464c39.333 0 59 21 59 63z" />
    <glyph glyph-name="uFEBE" unicode="&#x636;" horiz-adv-x="1742" arabic-form="final" 
d="M1392 1015c0 -19.333 -7 -35.833 -21 -49.5s-30.667 -20.5 -50 -20.5c-18.667 0 -35 7 -49 21s-21 30.333 -21 49c0 19.333 6.83301 36 20.5 50s30.167 21 49.5 21s36 -7 50 -21s21 -30.667 21 -50zM1752 0l-10.001 0.000976562c-46 0 -86.667 15 -122 45
c-36 -30 -79 -45 -129 -45h-470c-55.333 0 -93 9.33301 -113 28c-86 -150 -211 -225 -375 -225c-121.333 0 -224.666 42.667 -309.999 128s-128 188.666 -128 309.999v641h151v-641c0 -80 27.833 -147.833 83.5 -203.5s123.5 -83.5 203.5 -83.5c85.333 0 155 30.667 209 92
c52.667 58.667 79 131 79 217v619h151v-354c103.333 236 220 354 350 354c120 0 213.667 -43.333 281 -130c60.667 -78.667 91 -179.667 91 -303v-252c0 -33.333 16 -50 48 -50h10v-147zM1543 210.001v239c0 80 -18 145.667 -54 197c-41.333 59.333 -100.333 89 -177 89
c-59.333 0 -127.333 -68.333 -204 -205c-48 -86 -92 -182.333 -132 -289c-4.66699 -12.667 -7 -26 -7 -40c0 -36 17 -54 51 -54h464c39.333 0 59 21 59 63z" />
    <glyph glyph-name="uFEBF" unicode="&#x636;" horiz-adv-x="918" arabic-form="initial" 
d="M918 197c0 -57.333 -19.501 -104.5 -58.501 -141.5s-87.167 -55.5 -144.5 -55.5h-522c-28.667 0 -53.667 9 -75 27c-17.333 -18 -36.666 -27 -57.999 -27h-70v147h11c29.333 0 44 19.667 44 59v676h151v-354c103.333 236 220 354 350 354c120 0 213.667 -43.333 281 -130
c60.667 -78.667 91 -179.667 91 -303v-252zM766.999 210v239c0 80 -18 145.667 -54 197c-41.333 59.333 -100.333 89 -177 89c-59.333 0 -127.333 -68.333 -204 -205c-48 -86 -92 -182.333 -132 -289c-4.66699 -12.667 -7 -26 -7 -40c0 -36 17 -54 51 -54h464
c39.333 0 59 21 59 63zM621.999 1015c0 -19.333 -7 -35.833 -21 -49.5s-30.667 -20.5 -50 -20.5c-18.667 0 -35 7 -49 21s-21 30.333 -21 49c0 19.333 6.83301 36 20.5 50s30.167 21 49.5 21s36 -7 50 -21s21 -30.667 21 -50z" />
    <glyph glyph-name="uFEC0" unicode="&#x636;" horiz-adv-x="966" arabic-form="medial" 
d="M622 1015c0 -19.333 -7 -35.833 -21 -49.5s-30.667 -20.5 -50 -20.5c-18.667 0 -35 7 -49 21s-21 30.333 -21 49c0 19.333 6.83301 36 20.5 50s30.167 21 49.5 21s36 -7 50 -21s21 -30.667 21 -50zM976 0h-10.001c-46 0 -86.667 15 -122 45c-36 -30 -79 -45 -129 -45
h-522c-28.667 0 -53.667 9 -75 27c-17.333 -18 -36.666 -27 -57.999 -27h-70v147h11c29.333 0 44 19.667 44 59v676h151v-354c103.333 236 220 354 350 354c120 0 213.667 -43.333 281 -130c60.667 -78.667 91 -179.667 91 -303v-252c0 -33.333 16 -50 48 -50h10v-147z
M766.999 210v239c0 80 -18 145.667 -54 197c-41.333 59.333 -100.333 89 -177 89c-59.333 0 -127.333 -68.333 -204 -205c-48 -86 -92 -182.333 -132 -289c-4.66699 -12.667 -7 -26 -7 -40c0 -36 17 -54 51 -54h464c39.333 0 59 21 59 63z" />
    <glyph glyph-name="uFEC2" unicode="&#x637;" horiz-adv-x="1071" arabic-form="final" 
d="M1081 0h-10.001c-46 0 -86.667 15 -122 45c-36 -30 -79 -45 -129 -45h-522c-28.667 0 -53.667 9 -75 27c-17.333 -18 -36.666 -27 -57.999 -27h-70v147h11c29.333 0 44 19.667 44 59v940h151v-618c103.333 236 220 354 350 354c120 0 213.667 -43.333 281 -130
c60.667 -78.667 91 -179.667 91 -303v-252c0 -33.333 16 -50 48 -50h10v-147zM871.999 210v239c0 80 -18 145.667 -54 197c-41.333 59.333 -100.333 89 -177 89c-59.333 0 -127.333 -68.333 -204 -205c-48 -86 -92 -182.333 -132 -289c-4.66699 -12.667 -7 -26 -7 -40
c0 -36 17 -54 51 -54h464c39.333 0 59 21 59 63z" />
    <glyph glyph-name="uFEC3" unicode="&#x637;" horiz-adv-x="918" arabic-form="initial" 
d="M918 197c0 -57.333 -19.501 -104.5 -58.501 -141.5s-87.167 -55.5 -144.5 -55.5h-522c-28.667 0 -53.667 9 -75 27c-17.333 -18 -36.666 -27 -57.999 -27h-70v147h11c29.333 0 44 19.667 44 59v940h151v-618c103.333 236 220 354 350 354c120 0 213.667 -43.333 281 -130
c60.667 -78.667 91 -179.667 91 -303v-252zM766.999 210v239c0 80 -18 145.667 -54 197c-41.333 59.333 -100.333 89 -177 89c-59.333 0 -127.333 -68.333 -204 -205c-48 -86 -92 -182.333 -132 -289c-4.66699 -12.667 -7 -26 -7 -40c0 -36 17 -54 51 -54h464
c39.333 0 59 21 59 63z" />
    <glyph glyph-name="uFEC4" unicode="&#x637;" horiz-adv-x="966" arabic-form="medial" 
d="M976 0h-10.001c-46 0 -86.667 15 -122 45c-36 -30 -79 -45 -129 -45h-522c-28.667 0 -53.667 9 -75 27c-17.333 -18 -36.666 -27 -57.999 -27h-70v147h11c29.333 0 44 19.667 44 59v940h151v-618c103.333 236 220 354 350 354c120 0 213.667 -43.333 281 -130
c60.667 -78.667 91 -179.667 91 -303v-252c0 -33.333 16 -50 48 -50h10v-147zM766.999 210v239c0 80 -18 145.667 -54 197c-41.333 59.333 -100.333 89 -177 89c-59.333 0 -127.333 -68.333 -204 -205c-48 -86 -92 -182.333 -132 -289c-4.66699 -12.667 -7 -26 -7 -40
c0 -36 17 -54 51 -54h464c39.333 0 59 21 59 63z" />
    <glyph glyph-name="uFEC6" unicode="&#x638;" horiz-adv-x="1071" arabic-form="final" 
d="M1081 0h-10.001c-46 0 -86.667 15 -122 45c-36 -30 -79 -45 -129 -45h-522c-28.667 0 -53.667 9 -75 27c-17.333 -18 -36.666 -27 -57.999 -27h-70v147h11c29.333 0 44 19.667 44 59v940h151v-618c103.333 236 220 354 350 354c120 0 213.667 -43.333 281 -130
c60.667 -78.667 91 -179.667 91 -303v-252c0 -33.333 16 -50 48 -50h10v-147zM871.999 210v239c0 80 -18 145.667 -54 197c-41.333 59.333 -100.333 89 -177 89c-59.333 0 -127.333 -68.333 -204 -205c-48 -86 -92 -182.333 -132 -289c-4.66699 -12.667 -7 -26 -7 -40
c0 -36 17 -54 51 -54h464c39.333 0 59 21 59 63zM724.999 1015c0 -19.333 -7 -35.833 -21 -49.5s-30.667 -20.5 -50 -20.5c-18.667 0 -35 7 -49 21s-21 30.333 -21 49c0 19.333 6.83301 36 20.5 50s30.167 21 49.5 21s36 -7 50 -21s21 -30.667 21 -50z" />
    <glyph glyph-name="uFEC7" unicode="&#x638;" horiz-adv-x="918" arabic-form="initial" 
d="M918 197c0 -57.333 -19.501 -104.5 -58.501 -141.5s-87.167 -55.5 -144.5 -55.5h-522c-28.667 0 -53.667 9 -75 27c-17.333 -18 -36.666 -27 -57.999 -27h-70v147h11c29.333 0 44 19.667 44 59v940h151v-618c103.333 236 220 354 350 354c120 0 213.667 -43.333 281 -130
c60.667 -78.667 91 -179.667 91 -303v-252zM766.999 210v239c0 80 -18 145.667 -54 197c-41.333 59.333 -100.333 89 -177 89c-59.333 0 -127.333 -68.333 -204 -205c-48 -86 -92 -182.333 -132 -289c-4.66699 -12.667 -7 -26 -7 -40c0 -36 17 -54 51 -54h464
c39.333 0 59 21 59 63zM621.999 1016c0 -19.333 -7 -35.833 -21 -49.5s-30.667 -20.5 -50 -20.5c-18.667 0 -35 7 -49 21s-21 30.333 -21 49c0 19.333 6.83301 36 20.5 50s30.167 21 49.5 21s36 -7 50 -21s21 -30.667 21 -50z" />
    <glyph glyph-name="uFEC8" unicode="&#x638;" horiz-adv-x="966" arabic-form="medial" 
d="M976 0h-10.001c-46 0 -86.667 15 -122 45c-36 -30 -79 -45 -129 -45h-522c-28.667 0 -53.667 9 -75 27c-17.333 -18 -36.666 -27 -57.999 -27h-70v147h11c29.333 0 44 19.667 44 59v940h151v-618c103.333 236 220 354 350 354c120 0 213.667 -43.333 281 -130
c60.667 -78.667 91 -179.667 91 -303v-252c0 -33.333 16 -50 48 -50h10v-147zM766.999 210v239c0 80 -18 145.667 -54 197c-41.333 59.333 -100.333 89 -177 89c-59.333 0 -127.333 -68.333 -204 -205c-48 -86 -92 -182.333 -132 -289c-4.66699 -12.667 -7 -26 -7 -40
c0 -36 17 -54 51 -54h464c39.333 0 59 21 59 63zM621.999 1016c0 -19.333 -7 -35.833 -21 -49.5s-30.667 -20.5 -50 -20.5c-18.667 0 -35 7 -49 21s-21 30.333 -21 49c0 19.333 6.83301 36 20.5 50s30.167 21 49.5 21s36 -7 50 -21s21 -30.667 21 -50z" />
    <glyph glyph-name="uFECA" unicode="&#x639;" horiz-adv-x="789" arabic-form="final" 
d="M799 0l-458.001 -0.000976562c-26 0 -48.333 -10 -67 -30s-28 -43 -28 -69c0 -26.667 9.33301 -49.167 28 -67.5s41.334 -27.5 68.001 -27.5h53v-151h-55c-68 0 -125.833 23.5 -173.5 70.5s-71.5 104.5 -71.5 172.5c0 53.333 15.5 101.5 46.5 144.5
s71.833 72.833 122.5 89.5c-83.333 76 -125 180.333 -125 313v240c0 56 18.833 102.833 56.5 140.5s84.5 56.5 140.5 56.5h204c54.667 0 101.667 -18.333 141 -55s59 -82 59 -136v-246c0 -117.333 -37 -216.666 -111 -297.999h170v-147zM588.999 440.999v231.001
c0 37.333 -16 56 -48 56h-199c-34.667 0 -52 -20 -52 -60v-224c0 -131.333 51.333 -219 154 -263c44.667 19.333 80.667 55.666 108 108.999c24.667 48 37 98.333 37 151z" />
    <glyph glyph-name="uFECB" unicode="&#x639;" horiz-adv-x="557" arabic-form="initial" 
d="M557 0l-567.999 0.000976562v147h177c-74 84.667 -111 182.667 -111 294c0 121.333 42.167 225.166 126.5 311.499s187.166 129.5 308.499 129.5h67v-147h-67c-80.667 0 -148.667 -28.667 -204 -86s-83 -126.666 -83 -207.999c0 -80.667 27.833 -149.834 83.5 -207.501
s123.5 -86.5 203.5 -86.5h67v-147z" />
    <glyph glyph-name="uFECC" unicode="&#x639;" horiz-adv-x="696" arabic-form="medial" 
d="M709 0h-258c-18 0 -50.333 6.66699 -97 20c-48 -13.333 -79.667 -20 -95 -20h-269v147h176c-78 71.333 -117 170.666 -117 297.999v240c0 56 18.833 102.833 56.5 140.5s84.5 56.5 140.5 56.5h204c54.667 0 101.667 -18.333 141 -55s59 -82 59 -136v-246
c0 -117.333 -37 -216.666 -111 -297.999h170v-147zM499 441v231.001c0 37.333 -16 56 -48 56h-199c-34.667 0 -52 -20 -52 -60v-224c0 -131.333 51.333 -219 154 -263c44.667 19.333 80.667 55.666 108 108.999c24.667 48 37 98.333 37 151z" />
    <glyph glyph-name="uFECE" unicode="&#x63a;" horiz-adv-x="790" arabic-form="final" 
d="M507 1014c0 -19.333 -7 -35.833 -21 -49.5s-30.667 -20.5 -50 -20.5c-18.667 0 -35 7 -49 21s-21 30.333 -21 49c0 19.333 6.83301 36 20.5 50s30.167 21 49.5 21s36 -7 50 -21s21 -30.667 21 -50zM799 0l-458.001 -0.000976562c-26 0 -48.333 -10 -67 -30
s-28 -43 -28 -69c0 -26.667 9.33301 -49.167 28 -67.5s41.334 -27.5 68.001 -27.5h53v-151h-55c-68 0 -125.833 23.5 -173.5 70.5s-71.5 104.5 -71.5 172.5c0 53.333 15.5 101.5 46.5 144.5s71.833 72.833 122.5 89.5c-83.333 76 -125 180.333 -125 313v240
c0 56 18.833 102.833 56.5 140.5s84.5 56.5 140.5 56.5h204c54.667 0 101.667 -18.333 141 -55s59 -82 59 -136v-246c0 -117.333 -37 -216.666 -111 -297.999h170v-147zM588.999 440.999v231.001c0 37.333 -16 56 -48 56h-199c-34.667 0 -52 -20 -52 -60v-224
c0 -131.333 51.333 -219 154 -263c44.667 19.333 80.667 55.666 108 108.999c24.667 48 37 98.333 37 151z" />
    <glyph glyph-name="uFECF" unicode="&#x63a;" horiz-adv-x="555" arabic-form="initial" 
d="M554 1015c0 -19.333 -7 -35.833 -21 -49.5s-30.667 -20.5 -50 -20.5c-18.667 0 -35 7 -49 21s-21 30.333 -21 49c0 19.333 6.83301 36 20.5 50s30.167 21 49.5 21s36 -7 50 -21s21 -30.667 21 -50zM557 0l-567.999 0.000976562v147h177c-74 84.667 -111 182.667 -111 294
c0 121.333 42.167 225.166 126.5 311.499s187.166 129.5 308.499 129.5h67v-147h-67c-80.667 0 -148.667 -28.667 -204 -86s-83 -126.666 -83 -207.999c0 -80.667 27.833 -149.834 83.5 -207.501s123.5 -86.5 203.5 -86.5h67v-147z" />
    <glyph glyph-name="uFED0" unicode="&#x63a;" horiz-adv-x="700" arabic-form="medial" 
d="M419 1014c0 -19.333 -7 -35.833 -21 -49.5s-30.667 -20.5 -50 -20.5c-18.667 0 -35 7 -49 21s-21 30.333 -21 49c0 19.333 6.83301 36 20.5 50s30.167 21 49.5 21s36 -7 50 -21s21 -30.667 21 -50zM709 0h-258c-18 0 -50.333 6.66699 -97 20
c-48 -13.333 -79.667 -20 -95 -20h-269v147h176c-78 71.333 -117 170.666 -117 297.999v240c0 56 18.833 102.833 56.5 140.5s84.5 56.5 140.5 56.5h204c54.667 0 101.667 -18.333 141 -55s59 -82 59 -136v-246c0 -117.333 -37 -216.666 -111 -297.999h170v-147zM499 441
v231.001c0 37.333 -16 56 -48 56h-199c-34.667 0 -52 -20 -52 -60v-224c0 -131.333 51.333 -219 154 -263c44.667 19.333 80.667 55.666 108 108.999c24.667 48 37 98.333 37 151z" />
    <glyph glyph-name="uFED2" unicode="&#x641;" horiz-adv-x="1495" arabic-form="final" 
d="M1064 1013c0 -19.333 -7 -35.833 -21 -49.5s-30.667 -20.5 -50 -20.5c-18.667 0 -35 7 -49 21s-21 30.333 -21 49c0 19.333 6.83301 36 20.5 50s30.167 21 49.5 21s36 -7 50 -21s21 -30.667 21 -50zM1503 0h-372c-54.667 0 -94 8.66699 -118 26
c-24 -17.333 -63.667 -26 -119 -26h-600c-64.667 -0 -114.667 22.333 -150 67c-32.667 40.667 -49 94.334 -49 161.001v654h150v-664c0 -47.333 19.667 -71 59 -71h362c-74.667 82.667 -112 181 -112 295c0 122.667 42.667 226.667 128 312s189.333 128 312 128
s227.167 -42.333 313.5 -127s129.5 -188.334 129.5 -311.001c0 -115.333 -41.333 -214.333 -124 -297h190v-147zM1289 443c-0.666992 82 -29.4971 151.501 -86.4971 208.501s-126.5 85.5 -208.5 85.5s-151.5 -28.5 -208.5 -85.5s-85.833 -126.5 -86.5 -208.5
c-0.666992 -84 27.166 -154.5 83.499 -211.5s126.5 -85.5 210.5 -85.5c83.333 0 153.666 28.667 210.999 86s85.666 127.666 84.999 210.999z" />
    <glyph glyph-name="uFED3" unicode="&#x641;" horiz-adv-x="939" arabic-form="initial" 
d="M569 1022c0 -51.333 -26.333 -76.999 -79 -76.999c-21.333 0 -39.5 7.5 -54.5 22.5s-22.5 33.167 -22.5 54.5s7.5 39.666 22.5 54.999s33.167 23 54.5 23c22 0 40.667 -7.5 56 -22.5s23 -33.5 23 -55.5zM939 444.001c0 -116 -38 -216.666 -114 -301.999
c-84 -94.667 -193.667 -142 -329 -142h-506v147h178c-74.667 82.667 -112 181 -112 295c0 122.667 42.667 226.667 128 312s189.333 128 312 128s227.167 -42.333 313.5 -127s129.5 -188.334 129.5 -311.001zM790 443.002c-0.666992 82 -29.3311 151.499 -85.998 208.499
s-126 85.5 -208 85.5s-151.5 -28.5 -208.5 -85.5s-85.833 -126.5 -86.5 -208.5c-0.666992 -84 27.166 -154.5 83.499 -211.5s126.5 -85.5 210.5 -85.5c82.667 0 152.667 28.833 210 86.5s85.666 127.834 84.999 210.501z" />
    <glyph glyph-name="uFED4" unicode="&#x641;" horiz-adv-x="995" arabic-form="medial" 
d="M564 1014c0 -19.333 -7 -35.833 -21 -49.5s-30.667 -20.5 -50 -20.5c-18.667 0 -35 7 -49 21s-21 30.333 -21 49c0 19.333 6.83301 36 20.5 50s30.167 21 49.5 21s36 -7 50 -21s21 -30.667 21 -50zM1005 0l-392 0.000976562c-54.667 0 -94 8.66699 -118 26
c-24 -17.333 -63.667 -26 -119 -26h-386v147h178c-74.667 82.667 -112 181 -112 295c0 122.667 42.667 226.667 128 312s189.333 128 312 128s227.167 -42.333 313.5 -127s129.5 -188.334 129.5 -311.001c0 -115.333 -41.333 -214.333 -124 -297h190v-147zM791 443.001
c-0.666992 82 -29.4971 151.501 -86.4971 208.501s-126.5 85.5 -208.5 85.5s-151.5 -28.5 -208.5 -85.5s-85.833 -126.5 -86.5 -208.5c-0.666992 -84 27.166 -154.5 83.499 -211.5s126.5 -85.5 210.5 -85.5c83.333 0 153.666 28.667 210.999 86
s85.666 127.666 84.999 210.999z" />
    <glyph glyph-name="uFED6" unicode="&#x642;" horiz-adv-x="1011" arabic-form="final" 
d="M972 1015c0 -19.333 -7 -36 -21 -50s-30.667 -21 -50 -21s-35.833 7 -49.5 21s-20.5 30.667 -20.5 50s6.83301 35.833 20.5 49.5s30.167 20.5 49.5 20.5s36 -6.83301 50 -20.5s21 -30.167 21 -49.5zM800 1015c0 -19.333 -7 -36 -21 -50s-30.667 -21 -50 -21
s-35.833 7 -49.5 21s-20.5 30.667 -20.5 50s6.83301 35.833 20.5 49.5s30.167 20.5 49.5 20.5s36 -6.83301 50 -20.5s21 -30.167 21 -49.5zM1022 0l-128.001 0.000976562c-88 -132.667 -209.333 -199 -364 -199c-121.333 0 -224.166 42 -308.499 126
s-126.5 186.667 -126.5 308v647h147v-647c0 -80 28 -147.833 84 -203.5s124 -83.5 204 -83.5c66 0 125.333 21 178 63c-101.333 22 -183.333 74 -246 156c-62 80 -93 172.333 -93 277c0 123.333 43.667 227.166 131 311.499s193 126.5 317 126.5h150v-735h55v-147z
M816.999 257.001v480c-82.667 0 -153.167 -28.333 -211.5 -85s-87.833 -126.334 -88.5 -209.001c-0.666992 -80 26.333 -148.667 81 -206s122 -87.666 202 -90.999c11.333 32 17 69 17 111z" />
    <glyph glyph-name="uFED7" unicode="&#x642;" horiz-adv-x="939" arabic-form="initial" 
d="M939 444c0 -116 -38 -216.666 -114 -301.999c-84 -94.667 -193.667 -142 -329 -142h-506v147h178c-74.667 82.667 -112 181 -112 295c0 122.667 42.667 226.667 128 312s189.333 128 312 128s227.167 -42.333 313.5 -127s129.5 -188.334 129.5 -311.001zM652 1014
c0 -19.333 -7 -36 -21 -50s-30.667 -21 -50 -21s-35.833 7 -49.5 21s-20.5 30.667 -20.5 50s6.83301 35.833 20.5 49.5s30.167 20.5 49.5 20.5s36 -6.83301 50 -20.5s21 -30.167 21 -49.5zM480 1014c0 -19.333 -7 -36 -21 -50s-30.667 -21 -50 -21s-35.833 7 -49.5 21
s-20.5 30.667 -20.5 50s6.83301 35.833 20.5 49.5s30.167 20.5 49.5 20.5s36 -6.83301 50 -20.5s21 -30.167 21 -49.5zM790 443.001c-0.666992 82 -29.3311 151.499 -85.998 208.499s-126 85.5 -208 85.5s-151.5 -28.5 -208.5 -85.5s-85.833 -126.5 -86.5 -208.5
c-0.666992 -84 27.166 -154.5 83.499 -211.5s126.5 -85.5 210.5 -85.5c82.667 0 152.667 28.833 210 86.5s85.666 127.834 84.999 210.501z" />
    <glyph glyph-name="uFED8" unicode="&#x642;" horiz-adv-x="995" arabic-form="medial" 
d="M1005 0l-392 0.000976562c-54.667 0 -94 8.66699 -118 26c-24 -17.333 -63.667 -26 -119 -26h-386v147h178c-74.667 82.667 -112 181 -112 295c0 122.667 42.667 226.667 128 312s189.333 128 312 128s227.167 -42.333 313.5 -127s129.5 -188.334 129.5 -311.001
c0 -115.333 -41.333 -214.333 -124 -297h190v-147zM648 1016c0 -19.333 -7 -36 -21 -50s-30.667 -21 -50 -21s-35.833 7 -49.5 21s-20.5 30.667 -20.5 50s6.83301 35.833 20.5 49.5s30.167 20.5 49.5 20.5s36 -6.83301 50 -20.5s21 -30.167 21 -49.5zM476 1016
c0 -19.333 -7 -36 -21 -50s-30.667 -21 -50 -21s-35.833 7 -49.5 21s-20.5 30.667 -20.5 50s6.83301 35.833 20.5 49.5s30.167 20.5 49.5 20.5s36 -6.83301 50 -20.5s21 -30.167 21 -49.5zM791 443.001c-0.666992 82 -29.4971 151.501 -86.4971 208.501
s-126.5 85.5 -208.5 85.5s-151.5 -28.5 -208.5 -85.5s-85.833 -126.5 -86.5 -208.5c-0.666992 -84 27.166 -154.5 83.499 -211.5s126.5 -85.5 210.5 -85.5c83.333 0 153.666 28.667 210.999 86s85.666 127.666 84.999 210.999z" />
    <glyph glyph-name="uFEDE" unicode="&#x644;" horiz-adv-x="1024" arabic-form="final" 
d="M1035 0l-11.001 0.000976562c-53.333 0 -92 9.33301 -116 28c-86 -150 -211 -225 -375 -225c-121.333 0 -224.666 42.667 -309.999 128s-128 188.666 -128 309.999v641h151v-641c0 -80 27.833 -147.833 83.5 -203.5s123.5 -83.5 203.5 -83.5c85.333 0 155 30.667 209 92
c52.667 58.667 79 131 79 217v883h151v-919c0 -53.333 15.667 -80 47 -80h16v-147z" />
    <glyph glyph-name="uFEDF" unicode="&#x644;" horiz-adv-x="198" arabic-form="initial" 
d="M198 195c0 -53.333 -19.5 -99.167 -58.5 -137.5s-85.5 -57.5 -139.5 -57.5h-10v147h10c31.333 0 47 16 47 48v951h151v-951z" />
    <glyph glyph-name="uFEE0" unicode="&#x644;" horiz-adv-x="245" arabic-form="medial" 
d="M255 0h-9.99902c-53.333 -0 -95.333 14.333 -126 43c-34.667 -28.667 -74.334 -43 -119.001 -43h-10v147h10c31.333 0 47 16 47 48v951h151v-951c0 -32 15.667 -48 47 -48h10v-147z" />
    <glyph glyph-name="uFEE2" unicode="&#x645;" horiz-adv-x="742" arabic-form="final" 
d="M752 0h-10c-53.333 -0 -95.333 14.333 -126 43c-34 -28.667 -74.333 -43 -121 -43h-197c-34 0 -51 -16.333 -51 -49v-296h-151v296c0 130.667 67.333 196 202 196v537c0 55.333 19 102 57 140s84.667 57 140 57c53.333 0 100 -18.667 140 -56s60 -82.333 60 -135v-495
c0 -32 15.667 -48 47 -48h10v-147zM544 195v474c0 37.333 -16 56 -48 56c-31.333 0 -47 -18.667 -47 -56v-522h46c32.667 0 49 16 49 48z" />
    <glyph glyph-name="uFEE3" unicode="&#x645;" horiz-adv-x="445" arabic-form="initial" 
d="M445 195c0 -130 -50.333 -194.999 -151 -194.999h-95v147c0 -42.667 -14.5 -77.834 -43.5 -105.501s-64.833 -41.5 -107.5 -41.5h-60v147h21c26 0 39 14.333 39 43v494c0 55.333 19 102 57 140s84.667 57 140 57c53.333 0 100 -18.667 140 -56s60 -82.333 60 -135v-495z
M294 195.001v474c0 37.333 -16 56 -48 56c-31.333 0 -47 -18.667 -47 -56v-522c18 0.666992 35.667 1 53 1c28 5.33301 42 21 42 47z" />
    <glyph glyph-name="uFEE4" unicode="&#x645;" horiz-adv-x="492" arabic-form="medial" 
d="M502 0h-10c-53.333 -0 -95.333 14.333 -126 43c-34 -28.667 -74.333 -43 -121 -43h-257v147h60v537c0 55.333 19 102 57 140s84.667 57 140 57c53.333 0 100 -18.667 140 -56s60 -82.333 60 -135v-495c0 -32 15.667 -48 47 -48h10v-147zM294 195v474
c0 37.333 -16 56 -48 56c-31.333 0 -47 -18.667 -47 -56v-522h46c32.667 0 49 16 49 48z" />
    <glyph glyph-name="uFEE6" unicode="&#x646;" horiz-adv-x="1024" arabic-form="final" 
d="M612 1015c0 -19.333 -7 -35.833 -21 -49.5s-30.667 -20.5 -50 -20.5c-18.667 0 -35 7 -49 21s-21 30.333 -21 49c0 19.333 6.83301 36 20.5 50s30.167 21 49.5 21s36 -7 50 -21s21 -30.667 21 -50zM1035 0l-11.001 0.000976562c-53.333 0 -92 9.33301 -116 28
c-86 -150 -211 -225 -375 -225c-121.333 0 -224.666 42.667 -309.999 128s-128 188.666 -128 309.999v641h151v-641c0 -80 27.833 -147.833 83.5 -203.5s123.5 -83.5 203.5 -83.5c85.333 0 155 30.667 209 92c52.667 58.667 79 131 79 217v619h151v-655
c0 -53.333 15.667 -80 47 -80h16v-147z" />
    <glyph glyph-name="uFEE7" unicode="&#x646;" horiz-adv-x="204" arabic-form="initial" 
d="M198 195c0 -53.333 -19.5 -99.167 -58.5 -137.5s-85.5 -57.5 -139.5 -57.5h-10v147h10c31.333 0 47 16 47 48v687h151v-687zM191 1015c0 -19.333 -7 -35.833 -21 -49.5s-30.667 -20.5 -50 -20.5c-18.667 0 -35 7 -49 21s-21 30.333 -21 49c0 19.333 6.83301 36 20.5 50
s30.167 21 49.5 21s36 -7 50 -21s21 -30.667 21 -50z" />
    <glyph glyph-name="uFEE8" unicode="&#x646;" horiz-adv-x="247" arabic-form="medial" 
d="M191 1015c0 -19.333 -7 -35.833 -21 -49.5s-30.667 -20.5 -50 -20.5c-18.667 0 -35 7 -49 21s-21 30.333 -21 49c0 19.333 6.83301 36 20.5 50s30.167 21 49.5 21s36 -7 50 -21s21 -30.667 21 -50zM255 0h-10c-48.667 0 -90.667 15 -126 45c-30 -30 -69.667 -45 -119 -45
h-10v147h10c31.333 0 47 16 47 48v687h151v-687c0 -32 15.667 -48 47 -48h10v-147z" />
    <glyph glyph-name="uFEEA" unicode="&#x647;" horiz-adv-x="1013" arabic-form="final" 
d="M1023 0l-10.001 -0.000976562c-132.667 0 -199 76 -199 228v207c0 76 -28.167 143.667 -84.5 203s-122.166 89 -197.499 89c-81.333 0 -149.833 -28.667 -205.5 -86s-83.5 -126.666 -83.5 -207.999c0 -82 27.667 -150.167 83 -204.5s124 -81.5 206 -81.5h143v-147h-141
c-122 0 -225.667 42.667 -311 128s-128 189 -128 311c0 122.667 42.5 227 127.5 313s188.833 129 311.5 129c102.667 0 196 -34.333 280 -103v104h150v-668c0 -44.667 16.333 -67 49 -67h10v-147z" />
    <glyph glyph-name="uFEEB" unicode="&#x647;" horiz-adv-x="831" arabic-form="initial" 
d="M831 443c0 -108 -32.667 -206.666 -98 -295.999c-72 -98 -160.333 -147 -265 -147h-269c-43.333 0 -81 9.33301 -113 28c-32.667 -18.667 -61.334 -28 -86.001 -28h-10v147h10c32 0 48 18 48 54v340c0 52 19.667 96.5 59 133.5s85 55.5 137 55.5
c54.667 0 101.834 -18 141.501 -54s59.5 -81 59.5 -135v-313c0 -54 11 -81 33 -81c66 0 118 34.333 156 103c32 57.333 48 121.666 48 192.999c0 82 -28 150.333 -84 205s-125 82 -207 82h-298v152h298c124 0 228.333 -42.167 313 -126.5s127 -188.5 127 -312.5z
M294 197.001v324c0 34 -15.667 51 -47 51c-32 0 -48 -17 -48 -51v-326c0 -32.667 15.333 -49 46 -49c32.667 0 49 17 49 51z" />
    <glyph glyph-name="uFEEC" unicode="&#x647;" horiz-adv-x="531" arabic-form="medial" 
d="M544 0l-90 0.000976562c14.667 -19.333 22 -47 22 -83c0 -58 -20 -107.333 -60 -148s-89 -61 -147 -61s-107 20.333 -147 61s-60 90 -60 148c0 37.333 8 65 24 83h-96v147h98c-11.333 13.333 -17 36.666 -17 69.999v464c0 55.333 19 102 57 140s84.667 57 140 57
c53.333 0 100 -18.667 140 -56s60 -82.333 60 -135v-476c0 -24.667 -5.33301 -46 -16 -64h92v-147zM317 202.001v464c0 37.333 -16 56 -48 56c-31.333 0 -47 -18.667 -47 -56v-464c0 -37.333 15.667 -56 47 -56c32 0 48 18.667 48 56zM349 -81.999
c0 22 -7.66699 41.167 -23 57.5s-34 24.5 -56 24.5c-22.667 0 -41.667 -8 -57 -24s-23 -35.333 -23 -58c0 -55.333 26.333 -83 79 -83c22.667 0 41.667 8.16699 57 24.5s23 35.833 23 58.5z" />
    <glyph glyph-name="uFEEE" unicode="&#x648;" horiz-adv-x="732" arabic-form="final" 
d="M742 0l-67 0.000976562v-20c0 -118.667 -42.667 -218 -128 -298l-113 99c60 56.667 90 129.667 90 219c-119.333 0 -220.666 43.333 -303.999 130s-125 190 -125 310c0 121.333 42.167 225.166 126.5 311.499s187.166 129.5 308.499 129.5h145v-734h67v-147zM523 147.001
v587.001c-72 0 -136.667 -30.833 -194 -92.5s-86 -128.834 -86 -201.501c0 -80 26.667 -148.333 80 -205c54 -58.667 120.667 -88 200 -88z" />
    <glyph glyph-name="uFEF0" unicode="&#x649;" horiz-adv-x="898" arabic-form="final" 
d="M909 0l-11 0.000976562c-87.333 -130.667 -210.333 -196 -369 -196c-121.333 0 -224 42.167 -308 126.5s-126 187.166 -126 308.499v643h151v-643c0 -80 27.833 -148.5 83.5 -205.5s123.5 -85.5 203.5 -85.5c64 0 118.667 18 164 54c-120 -4 -187.667 44.333 -203 145
h415v-147z" />
    <glyph glyph-name=".notdef" horiz-adv-x="1024" 
d="M128 0v1579h768v-1579h-768zM256 128h512v1323h-512v-1323z" />
    <glyph glyph-name="space" unicode=" " horiz-adv-x="219" 
 />
    <glyph glyph-name="exclam" unicode="!" horiz-adv-x="254" 
d="M246 191h-151v954h151v-954zM252 79c0 -52.667 -25.667 -79 -77 -79c-52.667 -0 -79 25.333 -79 76c0 22 7.5 41 22.5 57s33.5 24 55.5 24s40.5 -7.5 55.5 -22.5s22.5 -33.5 22.5 -55.5z" />
    <glyph glyph-name="percent" unicode="%" horiz-adv-x="650" 
d="M380 1007c0 -20.667 -7.16699 -38.167 -21.5 -52.5s-31.833 -21.5 -52.5 -21.5s-38.167 7.16699 -52.5 21.5s-21.5 31.833 -21.5 52.5c0 48.667 24.667 73 74 73s74 -24.333 74 -73zM650 1060l-399 -1091l-140 51l399 1091zM524 68
c0 -20.667 -7.16699 -38.167 -21.5 -52.5s-31.833 -21.5 -52.5 -21.5s-38.167 7.16699 -52.5 21.5s-21.5 31.833 -21.5 52.5s7.16699 38.167 21.5 52.5s31.833 21.5 52.5 21.5s38.167 -7.16699 52.5 -21.5s21.5 -31.833 21.5 -52.5z" />
    <glyph glyph-name="parenleft" unicode="(" horiz-adv-x="660" 
d="M660 990c-117.333 0 -217.167 -40.834 -299.5 -122.501s-123.5 -181.167 -123.5 -298.5s40.667 -216.666 122 -297.999s180.666 -122 297.999 -122v-151c-160 0 -293.5 55.667 -400.5 167s-160.5 247.333 -160.5 408s53.833 296.667 161.5 408s241.834 167 402.501 167
v-158z" />
    <glyph glyph-name="parenright" unicode=")" horiz-adv-x="660" 
d="M96 990c117.333 0 217.167 -40.835 299.5 -122.502s123.5 -181.167 123.5 -298.5s-40.667 -216.666 -122 -297.999s-180.666 -122 -297.999 -122v-151c160 0 294 56 402 168c106 110.667 159 246.334 159 407.001s-53.833 296.667 -161.5 408s-241.834 167 -402.501 167
v-158z" />
    <glyph glyph-name="asterisk" unicode="*" horiz-adv-x="968" 
d="M774 672c0 -56 -19.167 -103.333 -57.5 -142s-85.166 -58 -140.499 -58v67c36 0 66.833 13.167 92.5 39.5s38.5 57.5 38.5 93.5c0 38.667 -12.833 70.5 -38.5 95.5s-57.834 37.5 -96.501 37.5v70c56 0 103.667 -19.833 143 -59.5s59 -87.5 59 -143.5zM872 712
c37.333 -37.333 56.001 -83.666 56.001 -138.999c0 -58.667 -19.5 -107.834 -58.5 -147.501s-87.5 -59.5 -145.5 -59.5c-56 0 -103.667 19.667 -143 59l49 47c26.667 -26.667 58 -40 94 -40c37.333 0 69.166 13.333 95.499 40s39.5 58.667 39.5 96
c0 36 -12.333 66.667 -37 92zM537.001 491l-47 46.999c24.667 25.333 37 56 37 92c0 36.667 -13 68.334 -39 95.001s-57.333 40 -94 40c-36 0 -67.667 -13.667 -95 -41l-53 52c38 38 85.333 57 142 57c58 0 106.833 -19.167 146.5 -57.5s59.5 -86.5 59.5 -144.5
c0 -55.333 -19 -102 -57 -140zM968.001 395.999c0 -55.333 -20.5 -103 -61.5 -143s-89.5 -60 -145.5 -60c-55.333 0 -103 19.167 -143 57.5s-60 84.833 -60 139.5h73c0 -36 12.667 -66.667 38 -92s56 -38 92 -38c38 0 70.167 13.333 96.5 40s39.5 59 39.5 97z
M491.001 485.999l-68.999 0.000976562c0 36 -12.833 67 -38.5 93s-56.5 39 -92.5 39c-38.667 0 -70.5 -12.833 -95.5 -38.5s-37.5 -57.834 -37.5 -96.501l-68 -3c0 56 19.667 104.167 59 144.5s86.666 60.5 141.999 60.5c56 0 103.333 -19.167 142 -57.5s58 -85.5 58 -141.5
zM812.002 98c-40 -40 -89.333 -60.001 -148 -60.001c-58 0 -106 19.333 -144 58s-57 87.334 -57 146.001c0 58 19 106 57 144l46 -56c-24 -24.667 -36 -54.667 -36 -90c0 -37.333 13 -69.5 39 -96.5s57.667 -40.5 95 -40.5c36 0 67.667 13.667 95 41zM469.002 450.999
l-49.999 -48.998c-27.333 27.333 -59 41 -95 41c-36.667 0 -68 -13.333 -94 -40s-39 -58.334 -39 -95.001c0 -36 12.333 -66.667 37 -92l-44 -54c-39.333 39.333 -59 88.333 -59 147c0 57.333 19.167 105.166 57.5 143.499s86.166 57.5 143.499 57.5
c56 0 103.667 -19.667 143 -59zM486.003 68.001l-6.00098 -68c-55.333 0 -102.166 20 -140.499 60s-57.5 88 -57.5 144c0 55.333 18.5 102.833 55.5 142.5s83.167 59.5 138.5 59.5l4 -72c-36 0 -66.833 -12.667 -92.5 -38s-38.5 -56 -38.5 -92
c0 -38 13.333 -70.167 40 -96.5s59 -39.5 97 -39.5z" />
    <glyph glyph-name="plus" unicode="+" horiz-adv-x="620" 
d="M620 209h-193v-189h-136v189h-198v136h198v202h136v-202h193v-136z" />
    <glyph glyph-name="comma" unicode="," horiz-adv-x="250" 
d="M100 77c0 50 24.999 75.001 74.999 75.001c20.667 0 38.334 -7.33301 53.001 -22s22 -32.334 22 -53.001v-136h-33v73c-14 -8 -28 -12 -42 -12c-50 0 -75 25 -75 75z" />
    <glyph glyph-name="hyphen" unicode="-" horiz-adv-x="620" 
d="M620 209h-527v136h527v-136z" />
    <glyph glyph-name="period" unicode="." horiz-adv-x="245" 
d="M245 86c0 -21.333 -7.33301 -39.333 -22 -54s-32.667 -22 -54 -22c-20.667 0 -38.5 7.5 -53.5 22.5s-22.5 32.833 -22.5 53.5c0 21.333 7.33301 39.333 22 54s32.667 22 54 22s39.333 -7.33301 54 -22s22 -32.667 22 -54z" />
    <glyph glyph-name="slash" unicode="/" horiz-adv-x="650" 
d="M650 1060l-399 -1091l-140 51l399 1091z" />
    <glyph glyph-name="zero" unicode="0" horiz-adv-x="296" 
d="M296 289c0 -27.333 -9.66699 -50.666 -29 -69.999s-42.666 -29 -69.999 -29s-50.666 9.66699 -69.999 29s-29 42.666 -29 69.999s9.66699 50.666 29 69.999s42.666 29 69.999 29s50.666 -9.66699 69.999 -29s29 -42.666 29 -69.999z" />
    <glyph glyph-name="zero" unicode="&#x6f0;" horiz-adv-x="296" 
d="M296 289c0 -27.333 -9.66699 -50.666 -29 -69.999s-42.666 -29 -69.999 -29s-50.666 9.66699 -69.999 29s-29 42.666 -29 69.999s9.66699 50.666 29 69.999s42.666 29 69.999 29s50.666 -9.66699 69.999 -29s29 -42.666 29 -69.999z" />
    <glyph glyph-name="zero" unicode="&#x660;" horiz-adv-x="296" 
d="M296 289c0 -27.333 -9.66699 -50.666 -29 -69.999s-42.666 -29 -69.999 -29s-50.666 9.66699 -69.999 29s-29 42.666 -29 69.999s9.66699 50.666 29 69.999s42.666 29 69.999 29s50.666 -9.66699 69.999 -29s29 -42.666 29 -69.999z" />
    <glyph glyph-name="one" unicode="1" horiz-adv-x="246" 
d="M246 0h-151v1079h151v-1079z" />
    <glyph glyph-name="one" unicode="&#x6f1;" horiz-adv-x="246" 
d="M246 0h-151v1079h151v-1079z" />
    <glyph glyph-name="one" unicode="&#x661;" horiz-adv-x="246" 
d="M246 0h-151v1079h151v-1079z" />
    <glyph glyph-name="two" unicode="2" horiz-adv-x="492" 
d="M492 433c0 -166.667 -69.667 -246.333 -209 -239c-6 0 -18.333 0.666992 -37 2v-196h-151v1079h151v-657c0 -53.333 15.333 -80 46 -80c32.667 0 49 26.667 49 80v655h151v-644z" />
    <glyph glyph-name="two" unicode="&#x6f2;" horiz-adv-x="492" 
d="M492 433c0 -166.667 -69.667 -246.333 -209 -239c-6 0 -18.333 0.666992 -37 2v-196h-151v1079h151v-657c0 -53.333 15.333 -80 46 -80c32.667 0 49 26.667 49 80v655h151v-644z" />
    <glyph glyph-name="two" unicode="&#x662;" horiz-adv-x="492" 
d="M492 433c0 -166.667 -69.667 -246.333 -209 -239c-6 0 -18.333 0.666992 -37 2v-196h-151v1079h151v-657c0 -53.333 15.333 -80 46 -80c32.667 0 49 26.667 49 80v655h151v-644z" />
    <glyph glyph-name="three" unicode="3" horiz-adv-x="737" 
d="M737 428c0 -98 -22.335 -162.999 -67.002 -194.999c-30.667 -22 -74.667 -34.333 -132 -37c-7.33301 -2.66699 -24.666 -1.33398 -51.999 3.99902c-32.667 6 -57 15 -73 27c-29.333 -21.333 -71.666 -31.333 -126.999 -30l-40 1v-198h-151v1079h151v-657
c0 -52.667 15.333 -79 46 -79c32.667 0 49 26.333 49 79v657h151v-657c0 -52.667 15.667 -79 47 -79c32 0 48 27 48 81v655h150v-651z" />
    <glyph glyph-name="three" unicode="&#x6f3;" horiz-adv-x="737" 
d="M737 428c0 -98 -22.335 -162.999 -67.002 -194.999c-30.667 -22 -74.667 -34.333 -132 -37c-7.33301 -2.66699 -24.666 -1.33398 -51.999 3.99902c-32.667 6 -57 15 -73 27c-29.333 -21.333 -71.666 -31.333 -126.999 -30l-40 1v-198h-151v1079h151v-657
c0 -52.667 15.333 -79 46 -79c32.667 0 49 26.333 49 79v657h151v-657c0 -52.667 15.667 -79 47 -79c32 0 48 27 48 81v655h150v-651z" />
    <glyph glyph-name="three" unicode="&#x663;" horiz-adv-x="737" 
d="M737 428c0 -98 -22.335 -162.999 -67.002 -194.999c-30.667 -22 -74.667 -34.333 -132 -37c-7.33301 -2.66699 -24.666 -1.33398 -51.999 3.99902c-32.667 6 -57 15 -73 27c-29.333 -21.333 -71.666 -31.333 -126.999 -30l-40 1v-198h-151v1079h151v-657
c0 -52.667 15.333 -79 46 -79c32.667 0 49 26.333 49 79v657h151v-657c0 -52.667 15.667 -79 47 -79c32 0 48 27 48 81v655h150v-651z" />
    </font>
</defs>
</svg>
